<?xml version="1.0" encoding="utf-8"?>
<!-- Generator: Adobe Illustrator 24.0.0, SVG Export Plug-In . SVG Version: 6.00 Build 0)  -->
<svg version="1.1" xmlns="http://www.w3.org/2000/svg" xmlns:xlink="http://www.w3.org/1999/xlink" x="0px" y="0px"
	 viewBox="0 0 379.34 474.89" style="enable-background:new 0 0 379.34 474.89;" xml:space="preserve">
<style type="text/css">
	.st0{display:none;}
	.st1{display:inline;fill:#FFFFFF;}
	.st2{display:inline;}
	.st3{fill:#1A1A1A;}
	.st4{display:inline;fill:none;stroke:#010202;stroke-width:0.5841;stroke-miterlimit:10;}
	.st5{fill:#1A1A1A;stroke:#1A1A1A;stroke-miterlimit:10;}
	.st6{fill:#FFFFFF;stroke:#000000;stroke-miterlimit:10;}
	.st7{fill:#020203;}
	.st8{display:inline;fill:#1A1A1A;}
	.st9{display:inline;fill:#FFFFFF;stroke:#000000;stroke-miterlimit:10;}
	.st10{fill:#1A1A1A;stroke:#1A1A1A;stroke-width:0.865;stroke-linecap:round;stroke-linejoin:round;stroke-miterlimit:10;}
	.st11{fill:#FFFFFF;stroke:#000000;stroke-linecap:round;stroke-linejoin:round;stroke-miterlimit:10;}
	.st12{clip-path:url(#SVGID_2_);}
	.st13{display:inline;fill:#020203;}
	.st14{display:inline;fill:none;stroke:#010202;stroke-width:0.5474;stroke-miterlimit:10;}
	.st15{display:inline;fill:#FFFFFF;stroke:#000000;stroke-width:0.8912;stroke-miterlimit:10;}
	
		.st16{display:inline;fill:none;stroke:#FFFFFF;stroke-width:0.5;stroke-linecap:round;stroke-linejoin:round;stroke-miterlimit:10;}
	.st17{clip-path:url(#SVGID_4_);}
	.st18{fill:none;stroke:#010202;stroke-width:0.5841;stroke-miterlimit:10;}
	.st19{fill:none;stroke:#010202;stroke-width:0.5534;stroke-miterlimit:10;}
	.st20{fill:#FFFFFF;stroke:#000000;stroke-width:1.0095;stroke-miterlimit:10;}
	.st21{display:inline;fill:none;stroke:#010202;stroke-width:0.5795;stroke-miterlimit:10;}
	.st22{fill:#FFFFFF;stroke:#000000;stroke-width:0.8798;stroke-miterlimit:10;}
	.st23{fill:#FFFFFF;}
	.st24{fill:#EA8D29;}
	.st25{stroke:#000000;stroke-miterlimit:10;}
	.st26{stroke:#FFFFFF;stroke-miterlimit:10;}
	.st27{fill:#ECA378;}
	.st28{fill:none;stroke:#FFFFFF;stroke-width:0.5;stroke-linecap:round;stroke-linejoin:round;stroke-miterlimit:10;}
	.st29{display:inline;fill:#1A1A1A;stroke:#1A1A1A;stroke-miterlimit:10;}
</style>
<g id="BACKGROUND" class="st0">
	<rect x="-219.32" y="-2.95" class="st1" width="750" height="500"/>
</g>
<g id="OBJECTS">
	<g class="st0">
		<g class="st2">
			<path class="st3" d="M391.1,284.18c0,0-14.74,1.8-22.62,29.77c-1.6,5.69,0.69,13.08,1.4,20.51c0.75,7.85-5.41,9.23-6.32,15.73
				c-0.94,6.68,2.26,11.46,0.54,17.11c-1.98,6.51-5.66,9.19-7.01,15.01c-1.29,5.56,0.86,9.4,0.51,14.04
				c-0.29,3.86-2.58,7.76-0.62,11.63c0,0,3.01,0.25,7.89,0.6c1.19-3.77,2.74-7.54,2.74-11.32c0,4.16,0.01,7.72,0.45,11.54
				c1.91,0.13,4.02,0.28,6.28,0.42c0.21-0.92,0.32-1.88,0.31-2.81c-0.04-3.1-1.04-6.1-1.75-9.12c-0.71-3.02-1.13-6.27-0.02-9.17
				c1.36-3.57,4.81-6.06,6-9.69c1.19-3.61-0.09-7.51-1.16-11.15c-1.07-3.65-1.86-7.81,0.11-11.06c1.56-2.55,4.55-3.99,6.02-6.6
				c1.91-3.38,0.74-7.65,1.55-11.44c0.94-4.39,4.57-7.86,8.73-9.55c4.16-1.69,8.78-1.83,13.26-1.46c5.22,0.43,10.44,1.56,15.18,3.78
				l-2-46.8H391.1z"/>
			<path class="st3" d="M394.14,328.66c-4.16,1.69-7.79,5.16-8.73,9.55c-0.81,3.8,0.36,8.06-1.55,11.44
				c-1.47,2.6-4.46,4.04-6.02,6.6c-1.98,3.25-1.18,7.41-0.11,11.06c1.07,3.65,2.35,7.54,1.16,11.15c-1.2,3.62-4.64,6.12-6,9.69
				c-1.11,2.9-0.69,6.15,0.02,9.17c0.71,3.02,1.72,6.02,1.75,9.12c0.01,0.93-0.1,1.89-0.31,2.81c14.87,0.97,36.25,2.11,51.66,1.83
				l-3.43-80.1c-4.74-2.22-9.96-3.34-15.18-3.78C402.93,326.83,398.3,326.97,394.14,328.66z"/>
		</g>
		<path class="st4" d="M391.75,283.38c-8.19,3.09-15.24,9.11-19.57,16.72c-4.33,7.61-5.89,16.75-4.35,25.37
			c0.61,3.41,1.67,6.98,0.49,10.23c-1.21,3.33-4.53,5.54-5.79,8.85c-2.21,5.84,2.78,12.11,2.17,18.32
			c-0.67,6.87-7.91,11.7-8.66,18.57c-0.39,3.62,1.1,7.13,1.91,10.68c1.13,4.94,0.91,10.18-0.62,15.02"/>
		<g class="st2">
			<path class="st3" d="M464.26,397.31c0.71-3.02,1.13-6.27,0.02-9.17c-1.36-3.57-4.81-6.06-6-9.69c-1.19-3.61,0.09-7.51,1.16-11.15
				s1.86-7.81-0.11-11.06c-1.56-2.55-4.55-3.99-6.02-6.6c-1.91-3.38-0.74-7.65-1.55-11.44c-0.94-4.39-4.57-7.86-8.73-9.55
				c-4.16-1.69-8.78-1.83-13.26-1.46c-4.69,0.39-9.37,1.35-13.71,3.14l-3.46,80.73c14.55,0.26,35.21-1.13,50.12-2.22
				c-0.15-0.8-0.23-1.62-0.22-2.42C462.55,403.33,463.55,400.33,464.26,397.31z"/>
			<path class="st3" d="M481,396.35c-0.35-4.65,1.8-8.48,0.51-14.04c-1.35-5.82-5.02-8.49-7.01-15.01
				c-1.72-5.66,1.48-10.43,0.54-17.11c-0.91-6.5-7.06-7.88-6.32-15.73c0.71-7.43,2.08-14.64,1.4-20.51
				c-3.59-30.89-38.34-38.06-38.34-38.06l-13.75,8.29l-1.98,46.17c4.34-1.79,9.02-2.75,13.71-3.14c4.47-0.37,9.1-0.23,13.26,1.46
				c4.16,1.69,7.79,5.16,8.73,9.55c0.81,3.8-0.36,8.06,1.55,11.44c1.47,2.6,4.46,4.04,6.02,6.6c1.98,3.25,1.18,7.41,0.11,11.06
				s-2.35,7.54-1.16,11.15c1.19,3.62,4.64,6.12,6,9.69c1.11,2.9,0.69,6.15-0.02,9.17c-0.71,3.02-1.72,6.02-1.75,9.12
				c-0.01,0.8,0.06,1.62,0.22,2.42c4.01-0.29,7.61-0.56,10.56-0.77c-0.03-1.44-0.9-5.31-0.9-10.65c1.96,2.99,1.26,5.64,3.25,10.29
				c2.29-0.17,5.2,0.33,5.2,0.33C484,403.87,481.29,400.21,481,396.35z"/>
		</g>
		<path class="st4" d="M435.58,277.79c8.53,1.76,16.61,1.72,27.92,15.66c5.48,6.76,8.82,19.18,7.04,27.7
			c-1.23,5.88-4.02,12.11-1.55,17.59c1.63,3.61,5.28,6.03,6.8,9.69c2.95,7.08-3.11,15.73,0.26,22.62c1,2.04,2.72,3.63,3.95,5.54
			c2.87,4.43,4.01,11.16-0.08,18.62c-2.53,4.62,3.85,6.26-0.48,11.92"/>
		<g class="st2">
			<path class="st5" d="M451.29,377.5c-3.2-3.12-7.16-5.82-12.05-7.86c-15.02,3.95-30.67,5.15-46.44,1.78
				c-2.75,1.58-5.16,3.44-7.31,5.47C406.46,385.79,429.85,384.54,451.29,377.5z"/>
			<path class="st6" d="M456.21,383.43c-1.4-2.09-3.02-4.08-4.92-5.93c-21.44,7.04-44.83,8.29-65.8-0.6
				c-2.64,2.5-4.84,5.3-6.69,8.24C403.83,394.6,431.49,392.89,456.21,383.43z"/>
			<path class="st6" d="M463.2,401.3c-0.54-2.88-1.31-5.86-2.4-8.8c-26.31,9.66-58.28,7.87-85.67-0.34
				c-1.26,2.92-2.25,5.88-3.03,8.76C400.94,411.2,434.91,413.02,463.2,401.3z"/>
			<path class="st5" d="M369.39,423.79h34.48c-11.74-0.88-23.35-2.89-34.41-5.84C369.3,421.38,369.39,423.59,369.39,423.79z"/>
			<path class="st6" d="M464.13,408.53c-1.52,0.77-3.07,1.46-4.68,2.06c-28.77,9.25-61.23,10.17-89.09-1.36
				c-0.52,3.34-0.77,6.32-0.89,8.72c11.05,2.95,22.67,4.96,34.41,5.84h26.03c11.82-0.93,23.42-3.18,34.37-6.97
				C464.37,414.46,464.36,411.63,464.13,408.53z"/>
			<path class="st5" d="M464.28,416.82c-10.95,3.78-22.56,6.04-34.37,6.97h33.75C463.66,423.79,464.12,421.07,464.28,416.82z"/>
			<path class="st5" d="M459.45,410.59c1.6-0.6,3.16-1.3,4.68-2.06c-0.17-2.29-0.46-4.72-0.93-7.22
				c-28.29,11.72-62.26,9.89-91.1-0.38c-0.78,2.9-1.34,5.7-1.74,8.31C398.22,420.76,430.68,419.84,459.45,410.59z"/>
			<path class="st5" d="M460.8,392.5c-1.15-3.11-2.64-6.18-4.59-9.07c-24.73,9.46-52.38,11.17-77.4,1.7
				c-1.43,2.28-2.64,4.64-3.68,7.03C402.52,400.37,434.48,402.17,460.8,392.5z"/>
			<path class="st6" d="M439.24,369.64c-6.01-2.5-13.41-3.99-22.54-3.99c-9.88,0-17.7,2.22-23.9,5.77
				C408.57,374.79,424.22,373.59,439.24,369.64z"/>
			<path class="st6" d="M405.27,366.56c0,0,0.21,12.83,13.75,12.97c13.54,0.14,14.82-11.95,14.82-11.95S417.34,363.94,405.27,366.56
				z"/>
			<g>
				<g>
					<g>
						<g>
							<path class="st6" d="M410.04,363.74l0.6,7.11c0,0,1.11,5.02,8.77,5.02c8.58,0,9.84-5.02,9.84-5.02l0.11-8.83l0.03-2.03
								C423.7,362.49,414.52,363.42,410.04,363.74z"/>
							<path class="st5" d="M429.47,353.2l-20.14,2.12l0.52,6.17l0.19,2.26c4.48-0.32,13.66-1.25,19.35-3.76L429.47,353.2z"/>
						</g>
						<path class="st6" d="M446.42,299.55c0,0,4.77,12.49,4.77,30.73c0,14.23-11.36,28.16-28.74,29.29
							c-16.33,1.06-33.3-5.51-38.39-28.42c-5.09-22.91,2.12-41.15,22.91-46.24C427.76,279.83,442.18,285.34,446.42,299.55z"/>
						<path class="st3" d="M413.51,278.55c0,0-45.39-7.07-34.98,50.29c0,0,3.95,1.67,7.65-0.79c0.74-0.49,0.53-3.96,1.47-4.37
							c1.3-0.56,3.98-4.28,5.63-4.91c0,0,0.07-7.6,1.35-8.03c1-0.34,1.67,7.05,2.75,6.73c6.22-1.83,23.43-4.19,31.65-3.9
							c1.33,0.05,2.76-9.05,2.76-9.05c1.36,0.14,2.56,10.66,3.95,10.91c2.02,0.36,5.09,1.77,6.44,2.39l1.75-5.67
							c0.92,0.56,0.16,6.71,1.32,7.42c0.81,0.5,2.93,3.53,3.96,4.11c0.79,0.44,0.08,1.81,0.87,2.29c2.82,1.75,6.8,1.7,7.49,2.86
							c0.69,1.16,8.59-24.96-3.84-39.5C438.47,271.48,422.8,274.75,413.51,278.55z"/>
						<path class="st6" d="M447.77,327.18c0,0,12.25-4.45,12.88,8.11c0.52,10.2-8.42,12.2-13.89,8.47"/>
						<g>
							<path class="st7" d="M448.25,341.27c0.03,0,0.07-0.01,0.1-0.02c0.13-0.06,0.18-0.21,0.12-0.33c-0.03-0.06-2.71-6.1,1.5-8.91
								c1.48-0.99,2.94-1.33,4.34-1.03c2.42,0.53,3.88,2.84,3.89,2.86c0.07,0.12,0.23,0.15,0.35,0.08c0.12-0.07,0.15-0.23,0.08-0.35
								c-0.06-0.1-1.58-2.51-4.21-3.09c-1.54-0.33-3.13,0.03-4.73,1.1c-4.57,3.05-1.71,9.48-1.68,9.54
								C448.06,341.21,448.15,341.27,448.25,341.27z"/>
						</g>
						<g>
							<path class="st7" d="M454.45,336.34c0.08,0,0.15-0.03,0.2-0.1c0.08-0.11,0.06-0.27-0.05-0.35c-0.04-0.03-4.27-3.12-7.4,0.02
								c-0.1,0.1-0.1,0.26,0,0.36c0.1,0.1,0.26,0.1,0.36,0c2.83-2.83,6.71,0,6.75,0.02C454.34,336.32,454.4,336.34,454.45,336.34z"
								/>
						</g>
						<g>
							<path class="st7" d="M420.3,342.7c-3.85,0-4.29-3.2-4.3-3.23c-0.02-0.14,0.08-0.26,0.22-0.28c0.13-0.02,0.26,0.08,0.28,0.22
								c0.02,0.13,0.46,3.15,4.5,2.76c0.14,0,0.26,0.09,0.28,0.23c0.01,0.14-0.09,0.26-0.23,0.28
								C420.78,342.69,420.53,342.7,420.3,342.7z"/>
						</g>
						<path class="st6" d="M387.67,327.18c0,0-12.25-4.45-12.88,8.11c-0.53,10.53,9.23,12.33,14.66,8.08"/>
						<path class="st3" d="M397.25,321.91c0,0-2.51-2.23,2.79-5.01c5.3-2.78,7.16-2.17,8.02-0.78c0.78,1.27-0.43,3.17-3.44,4.68
							C401.01,322.6,398.61,323.19,397.25,321.91z"/>
						<path class="st7" d="M407.4,330.41c0,1.71-1.14,3.1-2.55,3.1c-1.41,0-2.55-1.39-2.55-3.1c0-1.71,1.14-3.1,2.55-3.1
							C406.26,327.31,407.4,328.69,407.4,330.41z"/>
						<path class="st3" d="M440.51,321.91c0,0,2.51-2.23-2.79-5.01c-5.3-2.78-7.16-2.17-8.02-0.78c-0.78,1.27,0.43,3.17,3.44,4.68
							C436.75,322.6,439.15,323.19,440.51,321.91z"/>
						<path class="st7" d="M429.24,330.41c0,1.71,1.14,3.1,2.55,3.1c1.41,0,2.55-1.39,2.55-3.1c0-1.71-1.14-3.1-2.55-3.1
							C430.38,327.31,429.24,328.69,429.24,330.41z"/>
						<g>
							<path class="st7" d="M387.2,341.27c-0.03,0-0.07-0.01-0.1-0.02c-0.13-0.06-0.18-0.21-0.12-0.33c0.03-0.06,2.71-6.1-1.5-8.91
								c-1.48-0.99-2.94-1.33-4.34-1.03c-2.42,0.53-3.88,2.84-3.89,2.86c-0.07,0.12-0.23,0.15-0.35,0.08
								c-0.12-0.07-0.15-0.23-0.08-0.35c0.06-0.1,1.58-2.51,4.21-3.09c1.54-0.33,3.13,0.03,4.73,1.1c4.57,3.05,1.71,9.48,1.68,9.54
								C387.38,341.21,387.29,341.27,387.2,341.27z"/>
						</g>
						<g>
							<path class="st7" d="M380.99,336.34c-0.08,0-0.15-0.03-0.2-0.1c-0.08-0.11-0.06-0.27,0.05-0.35c0.04-0.03,4.27-3.12,7.4,0.02
								c0.1,0.1,0.1,0.26,0,0.36c-0.1,0.1-0.26,0.1-0.36,0c-2.83-2.83-6.71,0-6.75,0.02C381.1,336.32,381.05,336.34,380.99,336.34z"
								/>
						</g>
						<g>
							<path class="st7" d="M421.15,336.62c-0.1,0-0.19-0.05-0.23-0.15c-0.06-0.13,0-0.28,0.12-0.33c0.02-0.01,2.04-0.94,2.93-2.75
								c0.7-1.42,0.48-3.54-0.46-4.46c-0.57-0.55-1.33-0.6-2.22-0.13c-0.03,0.01-0.07,0.04-0.13,0.07c-3.1,1.8-4.5,0.99-5.13,0
								c-1.15-1.83-0.16-16.26-0.04-17.9c0.01-0.14,0.13-0.24,0.27-0.23c0.14,0.01,0.24,0.13,0.23,0.27
								c-0.32,4.41-0.94,16.17-0.04,17.59c0.74,1.18,2.24,1.12,4.45-0.16c0.07-0.04,0.12-0.07,0.15-0.09
								c1.08-0.56,2.08-0.49,2.8,0.22c1.1,1.07,1.36,3.43,0.56,5.05c-0.97,1.97-3.08,2.94-3.17,2.98
								C421.22,336.62,421.19,336.62,421.15,336.62z"/>
						</g>
					</g>
				</g>
			</g>
			<g>
				<line class="st5" x1="386.62" y1="423.79" x2="388.34" y2="399.06"/>
				<line class="st5" x1="449.21" y1="423.79" x2="449.21" y2="399.06"/>
			</g>
		</g>
	</g>
	<g class="st0">
		<path class="st8" d="M-12.58,83.57c0,0-18.09,6.78-18.59,30.14c-0.19,8.78-3.12,10.85-3.91,17.48
			c-0.53,4.47,0.89,11.77,3.91,11.54c8.53-0.67,29.86,6.23,46.95,5.04c27.87-1.94,42.82-7.15,44.08-7.75
			c0.72-0.34,3.92-1.93,3.9-10.06c-0.02-6.22-4.84-14.18-6.71-24c-3.87-20.39-17.04-28.57-34.52-31.17
			c-8.1-1.2-12.16,7.9-19.18,10.4C-4.79,88.08-12.58,83.57-12.58,83.57z"/>
		<path class="st9" d="M-29.54,205.23c-1.97,10.41-1.61,18.96-1.61,19.36h19.03v-13.02C-17.93,209.62-23.74,207.37-29.54,205.23z"/>
		<path class="st9" d="M41.21,211.67v12.92H58c0,0,1.28-8.42,0.11-18.85C52.52,207.93,46.82,209.84,41.21,211.67z"/>
		<g class="st2">
			<path class="st10" d="M59.85,201.7c-3.16-16.27-13.82-35.25-46.45-35.25c-28.89,0-40.19,18.87-44.59,35.12l19.05,6.02v17h53.34
				v-17L59.85,201.7z"/>
			<path class="st6" d="M-12.12,207.59l-19.05-6.02c-0.34,1.24-0.62,2.46-0.88,3.66c6.65,2.14,13.29,4.39,19.94,6.35V207.59z"/>
			<path class="st6" d="M59.85,201.7l-18.64,5.88v4.08c6.4-1.83,12.89-3.74,19.28-5.93C60.33,204.42,60.12,203.07,59.85,201.7z"/>
		</g>
		<path class="st9" d="M1.79,167.37c0,0,0.21,12.83,13.75,12.97c13.54,0.14,14.82-11.95,14.82-11.95S14.99,164.91,1.79,167.37z"/>
		<g class="st2">
			<g>
				<g>
					<g>
						<g>
							<path class="st6" d="M6.41,164.56l0.6,7.11c0,0,1.11,5.02,8.77,5.02c8.58,0,9.84-5.02,9.84-5.02l0.11-8.83l0.03-2.03
								C20.07,163.31,10.89,164.24,6.41,164.56z"/>
							<path class="st5" d="M25.84,154.02L5.7,156.14l0.52,6.17l0.19,2.26c4.48-0.32,13.66-1.25,19.35-3.76L25.84,154.02z"/>
						</g>
						<path class="st6" d="M42.79,100.37c3.2,7.09,4.77,12.49,4.77,30.73c0,14.23-11.36,28.16-28.74,29.29
							c-16.33,1.06-33.3-5.51-38.39-28.42c-5.09-22.91,2.12-41.15,22.91-46.24C24.13,80.65,39.03,92.03,42.79,100.37z"/>
						<path class="st3" d="M-22.89,128.13c0,0,7.16-2.1,11.53-12.36c0,0-0.53,4.76-0.76,6.72c-0.23,1.96,11.72-2.78,18.53-19.2
							c0,0,15.52,17.44,23.96,16.3c0,0,0.1-5.59-2.21-9.05c0,0,15.23,15.7,21.1,17.59c5.87,1.89,7.07-26.48-6.12-42.08
							c-13.18-15.6-34.68-13.15-44.3-6.01c0,0-25.34,2.43-25.71,26.41S-22.89,128.13-22.89,128.13z"/>
						<path class="st3" d="M-2.51,83c-2.02-1.41-3.47-3.61-4.03-6.01c-0.14-0.62,0.59-1.07,1.06-0.65c1.63,1.49,2.97,3.3,3.9,5.3
							c-0.29-2.01-0.57-4.02-0.86-6.03c-0.06-0.42-0.12-0.86,0-1.28c0.12-0.41,0.45-0.8,0.88-0.82c0.4-0.02,0.76,0.27,0.95,0.62
							s0.22,0.77,0.26,1.16c0.23,2.53,0.45,5.07,0.68,7.6"/>
						<path class="st6" d="M44.14,128c0,0,12.25-4.45,12.88,8.11c0.52,10.2-8.41,12.36-13.88,8.63"/>
						<g>
							<path class="st7" d="M44.62,142.09c0.03,0,0.07-0.01,0.1-0.02c0.13-0.06,0.18-0.21,0.12-0.33c-0.03-0.06-2.71-6.1,1.5-8.91
								c1.48-0.99,2.94-1.33,4.34-1.03c2.42,0.53,3.88,2.84,3.89,2.86c0.07,0.12,0.23,0.15,0.35,0.08c0.12-0.07,0.15-0.23,0.08-0.35
								c-0.06-0.1-1.58-2.51-4.21-3.09c-1.54-0.33-3.13,0.03-4.73,1.1c-4.57,3.05-1.71,9.48-1.68,9.54
								C44.43,142.03,44.52,142.09,44.62,142.09z"/>
						</g>
						<g>
							<path class="st7" d="M50.82,137.16c0.08,0,0.15-0.03,0.2-0.1c0.08-0.11,0.06-0.27-0.05-0.35c-0.04-0.03-4.27-3.12-7.4,0.02
								c-0.1,0.1-0.1,0.26,0,0.36c0.1,0.1,0.26,0.1,0.36,0c2.83-2.83,6.71,0,6.75,0.02C50.71,137.15,50.77,137.16,50.82,137.16z"/>
						</g>
						<g>
							<path class="st7" d="M16.67,143.53c-3.85,0-4.29-3.2-4.3-3.23c-0.02-0.14,0.08-0.26,0.22-0.28c0.13-0.02,0.26,0.08,0.28,0.22
								c0.02,0.13,0.46,3.15,4.5,2.76c0.14,0,0.26,0.09,0.28,0.23c0.01,0.14-0.09,0.26-0.23,0.28
								C17.15,143.52,16.9,143.53,16.67,143.53z"/>
						</g>
						<path class="st6" d="M-15.96,128c0,0-12.25-4.45-12.88,8.11c-0.53,10.53,9.48,12.96,14.91,8.71"/>
						<path class="st3" d="M-6.38,122.73c0,0-2.51-2.23,2.79-5.01c5.3-2.78,7.16-2.17,8.02-0.78c0.78,1.27-0.43,3.17-3.44,4.68
							C-2.62,123.42-5.02,124.01-6.38,122.73z"/>
						<path class="st7" d="M3.77,131.23c0,1.71-1.14,3.1-2.55,3.1s-2.55-1.39-2.55-3.1c0-1.71,1.14-3.1,2.55-3.1
							S3.77,129.52,3.77,131.23z"/>
						<path class="st3" d="M36.88,122.73c0,0,2.51-2.23-2.79-5.01c-5.3-2.78-7.16-2.17-8.02-0.78c-0.78,1.27,0.43,3.17,3.44,4.68
							C33.12,123.42,35.52,124.01,36.88,122.73z"/>
						<path class="st7" d="M25.61,131.23c0,1.71,1.14,3.1,2.55,3.1c1.41,0,2.55-1.39,2.55-3.1c0-1.71-1.14-3.1-2.55-3.1
							C26.75,128.13,25.61,129.52,25.61,131.23z"/>
						<g>
							<path class="st7" d="M-16.43,142.09c-0.03,0-0.07-0.01-0.1-0.02c-0.13-0.06-0.18-0.21-0.12-0.33c0.03-0.06,2.71-6.1-1.5-8.91
								c-1.48-0.99-2.94-1.33-4.34-1.03c-2.42,0.53-3.88,2.84-3.89,2.86c-0.07,0.12-0.23,0.15-0.35,0.08
								c-0.12-0.07-0.15-0.23-0.08-0.35c0.06-0.1,1.58-2.51,4.21-3.09c1.54-0.33,3.13,0.03,4.73,1.1c4.57,3.05,1.71,9.48,1.68,9.54
								C-16.25,142.03-16.34,142.09-16.43,142.09z"/>
						</g>
						<g>
							<path class="st7" d="M-22.64,137.16c-0.08,0-0.15-0.03-0.2-0.1c-0.08-0.11-0.06-0.27,0.05-0.35c0.04-0.03,4.27-3.12,7.4,0.02
								c0.1,0.1,0.1,0.26,0,0.36c-0.1,0.1-0.26,0.1-0.36,0c-2.83-2.83-6.71,0-6.75,0.02C-22.53,137.15-22.58,137.16-22.64,137.16z"
								/>
						</g>
						<g>
							<path class="st7" d="M17.52,137.45c-0.1,0-0.19-0.05-0.23-0.15c-0.06-0.13,0-0.28,0.12-0.33c0.02-0.01,2.04-0.94,2.93-2.75
								c0.7-1.42,0.48-3.54-0.46-4.46c-0.57-0.55-1.33-0.6-2.22-0.13c-0.03,0.01-0.07,0.04-0.13,0.07c-3.1,1.8-4.5,0.99-5.13,0
								c-1.15-1.83-0.16-16.26-0.04-17.9c0.01-0.14,0.13-0.24,0.27-0.23c0.14,0.01,0.24,0.13,0.23,0.27
								c-0.32,4.41-0.94,16.17-0.04,17.59c0.74,1.18,2.24,1.12,4.45-0.16c0.07-0.04,0.12-0.07,0.15-0.09
								c1.08-0.56,2.08-0.49,2.8,0.22c1.1,1.07,1.36,3.43,0.56,5.05c-0.97,1.97-3.08,2.94-3.17,2.98
								C17.59,137.44,17.56,137.45,17.52,137.45z"/>
						</g>
					</g>
				</g>
			</g>
		</g>
		<g class="st2">
			<g>
				<path class="st7" d="M-17.87,155.18c-0.96,0-1.89-0.2-2.77-0.61c-1.62-0.74-2.86-2.07-3.48-3.74c-1.1-2.96,0.03-6.32,2.71-7.99
					c0.18-0.11,0.4-0.15,0.61-0.1c0.21,0.05,0.39,0.18,0.5,0.36c0.11,0.18,0.15,0.4,0.1,0.61c-0.05,0.21-0.18,0.39-0.36,0.5
					c-2.03,1.27-2.89,3.82-2.05,6.06c0.47,1.27,1.41,2.27,2.64,2.84c1.23,0.56,2.61,0.61,3.87,0.14c1.83-0.68,3.08-2.31,3.27-4.26
					c0.04-0.43,0.13-0.93,0.45-0.92l1.01,1.23c-0.25,2.56-1.76,4.55-4.17,5.45C-16.28,155.04-17.07,155.18-17.87,155.18z
					 M-20.9,143.66C-20.9,143.66-20.9,143.66-20.9,143.66C-20.9,143.66-20.9,143.66-20.9,143.66z"/>
			</g>
		</g>
		<g class="st2">
			<g>
				<path class="st7" d="M44.87,154.76c-2.41-0.9-3.92-2.89-4.17-5.45l1.01-1.23c0.33-0.01,0.41,0.48,0.45,0.92
					c0.19,1.94,1.44,3.57,3.27,4.26c1.27,0.47,2.64,0.43,3.87-0.14c1.23-0.56,2.17-1.57,2.64-2.84c0.84-2.24-0.02-4.79-2.05-6.06
					c-0.18-0.11-0.31-0.29-0.36-0.5c-0.05-0.21-0.01-0.43,0.1-0.61c0.11-0.18,0.29-0.31,0.5-0.36c0.21-0.05,0.43-0.01,0.61,0.1
					c2.67,1.67,3.81,5.04,2.71,7.99c-0.62,1.67-1.86,3-3.48,3.74c-0.88,0.4-1.81,0.61-2.77,0.61
					C46.42,155.18,45.63,155.04,44.87,154.76z M50.24,143.66C50.24,143.66,50.24,143.66,50.24,143.66
					C50.24,143.66,50.24,143.66,50.24,143.66z"/>
			</g>
		</g>
		<g class="st2">
			<path class="st11" d="M15.16,201.74c0-4.97,3.12-9.2,7.5-10.88c-1.88-0.66-3.95-0.94-6.12-0.67
				c-6.62,0.84-11.76,6.59-11.81,13.26c-0.06,7.48,5.99,13.57,13.47,13.57c3.57,0,6.8-1.4,9.21-3.66c-0.2,0.01-0.4,0.03-0.61,0.03
				C20.38,213.39,15.16,208.18,15.16,201.74z"/>
		</g>
	</g>
	<g class="st0">
		<path class="st9" d="M-164.66,205.23c-1.97,10.41-1.61,18.96-1.61,19.36h19.03v-13.02C-153.05,209.62-158.85,207.37-164.66,205.23
			z"/>
		<path class="st9" d="M-93.9,211.67v12.92h16.79c0,0,1.28-8.42,0.11-18.85C-82.6,207.93-88.29,209.84-93.9,211.67z"/>
		<g class="st2">
			<path class="st6" d="M-75.26,201.7c-3.16-16.27-13.82-35.25-46.45-35.25c-28.89,0-40.19,18.87-44.59,35.12l19.05,6.02v17h53.34
				v-17L-75.26,201.7z"/>
			<g>
				<defs>
					<path id="SVGID_1_" d="M-169.36,224.59c0-1.06-2.92-58.14,47.31-58.14c57.09,0,46.96,58.14,46.96,58.14H-169.36z"/>
				</defs>
				<clipPath id="SVGID_2_">
					<use xlink:href="#SVGID_1_"  style="overflow:visible;"/>
				</clipPath>
				<g class="st12">
					<path d="M-138.39,176.86c0.5,0,1-0.18,1.42-0.52c0.94-0.39,1.64-1.27,1.75-2.27c0.06-0.52-0.04-1.03-0.27-1.47
						c-0.17-0.78-0.66-1.49-1.5-1.71c-0.51-0.14-1.4-0.17-2.28,0.84c-0.43,0.34-0.73,0.81-0.84,1.32c-0.19,0.39-0.36,0.85-0.39,1.37
						c-0.06,1.13,0.62,2.14,1.62,2.38C-138.71,176.84-138.55,176.86-138.39,176.86z"/>
				</g>
				<g class="st12">
					<path d="M-153.34,180.3c0.18,0,0.35-0.03,0.52-0.08c0.45-0.14,1.03-0.52,1.32-1.49c0.33-0.6,0.41-1.24,0.44-1.7
						c0-0.03,0-0.06,0.01-0.09l0.27-0.56c0.16-0.33,0.38-0.79,0.4-1.34c0.03-0.84-0.43-1.6-1.14-1.9c-0.82-0.34-1.73-0.04-2.45,0.8
						c-0.1,0.12-0.2,0.25-0.3,0.38c-0.12,0.08-0.24,0.17-0.35,0.28c-0.46,0.45-0.67,1-0.82,1.41c-0.18,0.47-0.39,1.05-0.38,1.72
						c0.02,0.95,0.53,1.79,1.3,2.15C-154.18,180.15-153.76,180.3-153.34,180.3z"/>
				</g>
				<g class="st12">
					<path d="M-112.38,196.75c0.14,0,0.29-0.02,0.45-0.07c0.41,0.05,0.82-0.13,1.07-0.46c0.12-0.17,0.24-0.34,0.35-0.52
						c0.18-0.13,0.32-0.32,0.4-0.54l0.09-0.26c0.29-0.39,0.5-0.84,0.6-1.31c0.05-0.21,0.08-0.43,0.09-0.65
						c0.1-0.3,0.07-0.63-0.07-0.9c0-0.06,0-0.12,0-0.17c0.01-0.1,0.01-0.21,0.01-0.31c0.03-1.38-0.66-1.94-1.07-2.15
						c-0.64-0.33-1.46-0.25-2.1,0.22c-0.03,0.02-0.06,0.04-0.08,0.06c-0.18,0.04-0.35,0.11-0.52,0.21
						c-0.35,0.21-0.64,0.53-0.83,0.92c-0.48,0.41-0.85,1-1.02,1.66c-0.24,0.92-0.03,1.81,0.55,2.36c0.15,0.35,0.37,0.65,0.65,0.89
						c0.05,0.15,0.13,0.3,0.23,0.44c0.25,0.33,0.6,0.54,1.01,0.58C-112.5,196.75-112.44,196.75-112.38,196.75z"/>
				</g>
				<g class="st12">
					<path d="M-135.31,199.71c0.81,0,1.61-0.48,2.07-1.25c0.11-0.18,0.19-0.36,0.25-0.54c0.24-0.22,0.45-0.49,0.6-0.81
						c0.31-0.66,0.31-1.35,0.3-1.85c0-0.56-0.01-2.04-1.21-2.73c-1.02-0.59-2.17-0.2-2.98,0.57c-0.52,0.32-0.95,0.86-1.19,1.56
						c-0.15,0.42-0.22,0.89-0.2,1.36c-0.04,0.28-0.05,0.57-0.05,0.86c0.04,1.31,0.81,2.71,2.22,2.83
						C-135.44,199.71-135.37,199.71-135.31,199.71z"/>
				</g>
				<g class="st12">
					<path d="M-122.44,210.18c0.5,0,1-0.18,1.42-0.52c0.94-0.39,1.64-1.27,1.75-2.27c0.06-0.52-0.04-1.03-0.27-1.47
						c-0.17-0.78-0.66-1.49-1.5-1.71c-0.51-0.14-1.4-0.17-2.28,0.84c-0.43,0.34-0.73,0.81-0.84,1.32c-0.19,0.39-0.36,0.85-0.39,1.37
						c-0.06,1.13,0.62,2.14,1.62,2.39C-122.76,210.17-122.6,210.18-122.44,210.18z"/>
				</g>
				<g class="st12">
					<path d="M-104.12,184.97c0.5,0,1-0.18,1.42-0.52c0.94-0.39,1.64-1.27,1.75-2.27c0.06-0.52-0.04-1.03-0.27-1.47
						c-0.17-0.78-0.66-1.49-1.5-1.71c-0.51-0.14-1.4-0.17-2.28,0.84c-0.43,0.34-0.73,0.81-0.84,1.32c-0.19,0.39-0.36,0.85-0.39,1.37
						c-0.06,1.13,0.62,2.14,1.62,2.38C-104.45,184.95-104.28,184.97-104.12,184.97z"/>
				</g>
				<g class="st12">
					<path d="M-85.74,201.57c0.5,0,1-0.18,1.42-0.52c0.94-0.39,1.64-1.27,1.75-2.27c0.06-0.52-0.04-1.03-0.27-1.47
						c-0.17-0.78-0.66-1.49-1.5-1.71c-0.51-0.14-1.4-0.17-2.28,0.84c-0.43,0.34-0.73,0.81-0.84,1.32c-0.19,0.39-0.36,0.85-0.39,1.37
						c-0.06,1.13,0.62,2.14,1.62,2.38C-86.07,201.55-85.91,201.57-85.74,201.57z"/>
				</g>
				<g class="st12">
					<path d="M-142.82,211.27c0.5,0,1-0.18,1.42-0.52c0.94-0.39,1.64-1.27,1.75-2.27c0.06-0.52-0.04-1.03-0.27-1.47
						c-0.17-0.78-0.66-1.49-1.5-1.71c-0.51-0.14-1.4-0.17-2.28,0.84c-0.43,0.34-0.73,0.81-0.84,1.32c-0.19,0.39-0.36,0.85-0.39,1.37
						c-0.06,1.13,0.62,2.14,1.62,2.38C-143.14,211.25-142.98,211.27-142.82,211.27z"/>
				</g>
				<g class="st12">
					<path d="M-136.87,225.39c0.74,0.33,1.67,0.22,2.4-0.31c0.17-0.12,0.32-0.25,0.45-0.39c0.31-0.1,0.61-0.26,0.88-0.5
						c0.55-0.48,0.83-1.11,1.03-1.57c0.22-0.51,0.81-1.87,0-2.99c-0.69-0.95-1.91-1.06-2.95-0.69c-0.61,0.08-1.22,0.41-1.72,0.94
						c-0.3,0.32-0.56,0.72-0.73,1.16c-0.15,0.24-0.28,0.5-0.39,0.77c-0.5,1.22-0.36,2.8,0.88,3.49
						C-136.97,225.34-136.92,225.36-136.87,225.39z"/>
				</g>
				<g class="st12">
					<path d="M-126.86,188.48c0.46,0.2,0.99,0.24,1.51,0.1c1.02,0.02,2.01-0.5,2.52-1.37c0.26-0.45,0.38-0.96,0.35-1.45
						c0.16-0.78,0-1.62-0.67-2.17c-0.41-0.33-1.21-0.72-2.42-0.16c-0.53,0.14-0.99,0.45-1.3,0.87c-0.33,0.28-0.68,0.63-0.91,1.09
						c-0.52,1.01-0.3,2.2,0.52,2.84C-127.15,188.33-127.01,188.42-126.86,188.48z"/>
				</g>
				<g class="st12">
					<path d="M-158.7,199.01c0.5,0,1-0.18,1.42-0.52c0.94-0.39,1.64-1.27,1.75-2.27c0.06-0.52-0.04-1.03-0.27-1.47
						c-0.17-0.78-0.66-1.49-1.5-1.71c-0.51-0.14-1.4-0.17-2.28,0.84c-0.43,0.34-0.73,0.81-0.84,1.32c-0.19,0.39-0.36,0.85-0.39,1.37
						c-0.07,1.13,0.62,2.14,1.62,2.38C-159.03,199-158.86,199.01-158.7,199.01z"/>
				</g>
				<g class="st12">
					<path d="M-148.85,191.12c0.46,0.2,0.99,0.24,1.51,0.1c1.02,0.02,2.01-0.5,2.52-1.37c0.26-0.45,0.38-0.96,0.35-1.45
						c0.16-0.78,0-1.62-0.67-2.17c-0.41-0.33-1.21-0.72-2.42-0.16c-0.53,0.14-0.99,0.45-1.3,0.87c-0.33,0.28-0.68,0.63-0.91,1.09
						c-0.52,1.01-0.3,2.2,0.52,2.84C-149.14,190.97-149,191.05-148.85,191.12z"/>
				</g>
				<g class="st12">
					<path d="M-78.49,193.63c0.16,0.07,0.33,0.12,0.51,0.14c0.47,0.05,1.15-0.06,1.81-0.83c0.54-0.41,0.88-0.96,1.09-1.37
						c0.01-0.03,0.03-0.05,0.04-0.08l0.47-0.4c0.28-0.24,0.66-0.57,0.91-1.07c0.37-0.76,0.26-1.64-0.28-2.2
						c-0.61-0.64-1.57-0.74-2.56-0.26c-0.14,0.07-0.29,0.15-0.42,0.23c-0.14,0.02-0.29,0.06-0.43,0.11
						c-0.61,0.22-1.02,0.65-1.32,0.95c-0.35,0.36-0.79,0.8-1.05,1.42c-0.37,0.87-0.24,1.85,0.32,2.49
						C-79.19,193.15-78.87,193.45-78.49,193.63z"/>
				</g>
				<g class="st12">
					<path d="M-89.47,189.11c0.5,0,1-0.18,1.42-0.52c0.94-0.39,1.64-1.27,1.75-2.27c0.06-0.52-0.04-1.03-0.27-1.47
						c-0.17-0.78-0.66-1.49-1.5-1.71c-0.51-0.14-1.4-0.17-2.28,0.84c-0.43,0.34-0.73,0.81-0.84,1.32c-0.19,0.39-0.36,0.85-0.39,1.37
						c-0.06,1.13,0.62,2.14,1.62,2.38C-89.79,189.09-89.63,189.11-89.47,189.11z"/>
				</g>
				<g class="st12">
					<path d="M-118.29,223.57c0.18,0,0.35-0.03,0.53-0.08c0.45-0.14,1.03-0.52,1.32-1.49c0.33-0.6,0.41-1.24,0.44-1.7
						c0-0.03,0-0.06,0.01-0.09l0.27-0.56c0.16-0.33,0.38-0.79,0.4-1.34c0.03-0.84-0.43-1.6-1.14-1.9c-0.82-0.34-1.73-0.04-2.45,0.8
						c-0.1,0.12-0.2,0.25-0.3,0.38c-0.12,0.08-0.24,0.17-0.35,0.28c-0.46,0.45-0.67,1-0.82,1.41c-0.18,0.47-0.39,1.05-0.38,1.72
						c0.02,0.95,0.53,1.79,1.3,2.15C-119.13,223.42-118.72,223.57-118.29,223.57z"/>
				</g>
				<g class="st12">
					<path d="M-100.79,202.67c0.74,0.33,1.67,0.22,2.4-0.31c0.17-0.12,0.32-0.25,0.45-0.39c0.31-0.1,0.61-0.26,0.88-0.49
						c0.55-0.48,0.83-1.11,1.03-1.57c0.22-0.51,0.81-1.87,0-2.98c-0.69-0.95-1.91-1.06-2.95-0.69c-0.61,0.08-1.22,0.41-1.72,0.94
						c-0.3,0.32-0.56,0.72-0.73,1.16c-0.15,0.24-0.28,0.5-0.39,0.77c-0.5,1.22-0.36,2.8,0.88,3.49
						C-100.9,202.62-100.84,202.65-100.79,202.67z"/>
				</g>
				<g class="st12">
					<path d="M-99.08,227.82c0.74,0.33,1.67,0.22,2.4-0.31c0.17-0.12,0.32-0.25,0.45-0.39c0.31-0.1,0.61-0.26,0.88-0.49
						c0.55-0.48,0.83-1.11,1.03-1.57c0.22-0.51,0.81-1.87,0-2.98c-0.69-0.95-1.91-1.06-2.95-0.69c-0.61,0.08-1.22,0.41-1.72,0.94
						c-0.3,0.32-0.56,0.72-0.73,1.16c-0.15,0.24-0.28,0.5-0.39,0.77c-0.5,1.22-0.36,2.8,0.88,3.49
						C-99.18,227.76-99.13,227.79-99.08,227.82z"/>
				</g>
				<g class="st12">
					<path d="M-106.36,215.52c0.46,0.2,0.99,0.24,1.51,0.1c1.02,0.02,2.01-0.5,2.52-1.37c0.26-0.45,0.38-0.96,0.35-1.45
						c0.16-0.78,0-1.62-0.67-2.17c-0.41-0.33-1.21-0.72-2.42-0.16c-0.53,0.14-0.99,0.45-1.3,0.87c-0.33,0.28-0.68,0.63-0.91,1.09
						c-0.52,1.01-0.3,2.2,0.52,2.84C-106.65,215.37-106.51,215.45-106.36,215.52z"/>
				</g>
				<g class="st12">
					<path d="M-95.51,175.99c0.46,0.2,0.99,0.24,1.51,0.1c1.02,0.02,2.01-0.5,2.52-1.37c0.26-0.45,0.38-0.96,0.35-1.45
						c0.16-0.78,0-1.62-0.67-2.17c-0.41-0.33-1.21-0.72-2.42-0.16c-0.53,0.14-0.99,0.45-1.3,0.87c-0.33,0.28-0.68,0.63-0.91,1.09
						c-0.52,1.01-0.3,2.2,0.52,2.84C-95.8,175.84-95.66,175.92-95.51,175.99z"/>
				</g>
			</g>
			<path class="st10" d="M-147.24,207.59l-19.05-6.02c-0.34,1.24-0.62,2.46-0.88,3.66c6.65,2.14,13.29,4.39,19.94,6.35V207.59z"/>
			<path class="st10" d="M-75.26,201.7l-18.64,5.88v4.08c6.4-1.83,12.89-3.74,19.28-5.93C-74.79,204.42-75,203.07-75.26,201.7z"/>
		</g>
		<path class="st13" d="M-133.32,167.37c0,0,0.21,12.83,13.75,12.97c13.54,0.14,14.82-11.95,14.82-11.95
			S-120.12,164.91-133.32,167.37z"/>
		<g class="st2">
			<path class="st6" d="M-128.71,164.56l0.6,7.11c0,0,1.11,5.02,8.77,5.02c8.58,0,9.84-5.02,9.84-5.02l0.12-8.83l0.03-2.03
				C-115.05,163.31-124.22,164.24-128.71,164.56z"/>
			<path class="st5" d="M-109.27,154.02l-20.14,2.12l0.52,6.17l0.19,2.26c4.48-0.32,13.66-1.25,19.35-3.76L-109.27,154.02z"/>
		</g>
		<path class="st9" d="M-92.32,100.37c3.2,7.09,4.77,12.49,4.77,30.73c0,14.23-11.36,28.16-28.74,29.29
			c-16.33,1.06-33.3-5.51-38.39-28.42c-5.09-22.91,2.12-41.15,22.91-46.24C-110.99,80.65-96.09,92.03-92.32,100.37z"/>
		<path class="st8" d="M-95.62,82.89c23.03,8.49,16.35,46.93,14.28,48.46c-2.65,1.96-4.09,3.54-6.62,1.43
			c-2.53-2.11-0.54-2.07-2.58-4.65c-6.02-7.61-9.76-25.45-12.37-30.64c-1.33-2.64-2.54-5.53-2.16-8.46
			c0.38-2.93,2.93-5.77,5.86-5.43"/>
		<path class="st4" d="M-81.88,132.61c4.69-7.7,6.19-17.28,4.08-26.05c-2.11-8.77-7.81-16.62-15.49-21.34"/>
		<path class="st8" d="M-153.72,128.67c0,0,11.04-12.32,12.76-23.14c0,0,29.3,13.05,46.66-2.9c3.57-3.28,7-13.42,1.95-14.86
			c0,0,2.76-14.71-12.99-12.55c-15.75,2.17-18.35-0.43-27.5,0.06c-9.14,0.48-17.09,10.81-17.09,10.81
			c-21.31,13.47-13.55,39.46-11.03,42.59C-154.36,136.85-153.72,128.67-153.72,128.67z"/>
		<path class="st4" d="M-148.44,87.09c-6.77,2.85-12.3,8.51-15.01,15.34c-2.7,6.83-2.53,14.74,0.45,21.45
			c1.21,2.72,3.02,5.38,5.74,6.6"/>
		<path class="st8" d="M-150.3,88.12c-1.97-0.98-5.38-3.79-3.67-5.16c1.04-0.84,2.37,1.33,3.1,2.45c-0.26-1.23-0.52-2.45-0.78-3.68
			c-0.07-0.31-0.13-0.64-0.07-0.96c0.06-0.32,0.28-0.62,0.6-0.68c0.47-0.08,0.84,0.38,1.08,0.8c1.11,1.97,1.83,4.16,2.11,6.4"/>
		<path class="st9" d="M-90.98,128c0,0,12.25-4.45,12.88,8.11c0.52,10.2-8.41,12.36-13.88,8.63"/>
		<g class="st2">
			<path class="st7" d="M-90.5,142.09c0.03,0,0.07-0.01,0.1-0.02c0.13-0.06,0.18-0.21,0.12-0.33c-0.03-0.06-2.71-6.1,1.5-8.91
				c1.48-0.99,2.94-1.33,4.34-1.03c2.42,0.53,3.88,2.84,3.89,2.86c0.07,0.12,0.23,0.15,0.35,0.08c0.12-0.07,0.15-0.23,0.08-0.35
				c-0.06-0.1-1.58-2.51-4.21-3.09c-1.54-0.33-3.13,0.03-4.73,1.1c-4.57,3.05-1.71,9.48-1.68,9.54
				C-90.69,142.03-90.6,142.09-90.5,142.09z"/>
		</g>
		<g class="st2">
			<path class="st7" d="M-84.3,137.16c0.08,0,0.15-0.03,0.2-0.1c0.08-0.11,0.06-0.27-0.05-0.35c-0.04-0.03-4.27-3.12-7.4,0.02
				c-0.1,0.1-0.1,0.26,0,0.36c0.1,0.1,0.26,0.1,0.36,0c2.83-2.83,6.71,0,6.75,0.02C-84.4,137.15-84.35,137.16-84.3,137.16z"/>
		</g>
		<g class="st2">
			<path class="st7" d="M-118.45,143.53c-3.85,0-4.29-3.2-4.3-3.23c-0.02-0.14,0.08-0.26,0.22-0.28c0.13-0.02,0.26,0.08,0.28,0.22
				c0.02,0.13,0.46,3.15,4.5,2.76c0.14,0,0.26,0.09,0.28,0.23c0.01,0.14-0.09,0.26-0.23,0.28
				C-117.96,143.52-118.21,143.53-118.45,143.53z"/>
		</g>
		<path class="st9" d="M-151.07,128c0,0-12.25-4.45-12.88,8.11c-0.53,10.53,9.48,12.96,14.91,8.71"/>
		<path class="st8" d="M-141.5,122.73c0,0-2.51-2.23,2.79-5.01c5.3-2.78,7.16-2.17,8.02-0.78c0.78,1.27-0.43,3.17-3.44,4.68
			C-137.73,123.42-140.14,124.01-141.5,122.73z"/>
		<path class="st13" d="M-131.34,131.23c0,1.71-1.14,3.1-2.55,3.1s-2.55-1.39-2.55-3.1c0-1.71,1.14-3.1,2.55-3.1
			S-131.34,129.52-131.34,131.23z"/>
		<path class="st8" d="M-98.23,122.73c0,0,2.51-2.23-2.79-5.01c-5.3-2.78-7.16-2.17-8.02-0.78c-0.78,1.27,0.43,3.17,3.44,4.68
			C-102,123.42-99.59,124.01-98.23,122.73z"/>
		<path class="st13" d="M-109.5,131.23c0,1.71,1.14,3.1,2.55,3.1c1.41,0,2.54-1.39,2.54-3.1c0-1.71-1.14-3.1-2.54-3.1
			C-108.36,128.13-109.5,129.52-109.5,131.23z"/>
		<g class="st2">
			<path class="st7" d="M-151.55,142.09c-0.03,0-0.07-0.01-0.1-0.02c-0.13-0.06-0.18-0.21-0.12-0.33c0.03-0.06,2.71-6.1-1.5-8.91
				c-1.48-0.99-2.94-1.33-4.34-1.03c-2.42,0.53-3.88,2.84-3.89,2.86c-0.07,0.12-0.23,0.15-0.35,0.08c-0.12-0.07-0.15-0.23-0.08-0.35
				c0.06-0.1,1.58-2.51,4.21-3.09c1.54-0.33,3.13,0.03,4.73,1.1c4.57,3.05,1.71,9.48,1.68,9.54
				C-151.36,142.03-151.45,142.09-151.55,142.09z"/>
		</g>
		<g class="st2">
			<path class="st7" d="M-157.75,137.16c-0.08,0-0.15-0.03-0.2-0.1c-0.08-0.11-0.06-0.27,0.05-0.35c0.04-0.03,4.27-3.12,7.4,0.02
				c0.1,0.1,0.1,0.26,0,0.36c-0.1,0.1-0.26,0.1-0.36,0c-2.83-2.83-6.71,0-6.75,0.02C-157.65,137.15-157.7,137.16-157.75,137.16z"/>
		</g>
		<g class="st2">
			<path class="st7" d="M-117.59,137.45c-0.1,0-0.19-0.05-0.23-0.15c-0.06-0.13,0-0.28,0.12-0.33c0.02-0.01,2.04-0.94,2.93-2.75
				c0.7-1.42,0.48-3.54-0.46-4.46c-0.57-0.55-1.33-0.6-2.22-0.13c-0.03,0.01-0.07,0.04-0.13,0.07c-3.1,1.8-4.5,0.99-5.13,0
				c-1.15-1.83-0.16-16.26-0.04-17.9c0.01-0.14,0.13-0.24,0.27-0.23c0.14,0.01,0.24,0.13,0.23,0.27
				c-0.32,4.41-0.94,16.17-0.04,17.59c0.74,1.18,2.24,1.12,4.45-0.16c0.07-0.04,0.12-0.07,0.15-0.09c1.08-0.56,2.08-0.49,2.8,0.22
				c1.1,1.07,1.36,3.43,0.56,5.05c-0.97,1.97-3.08,2.94-3.17,2.98C-117.52,137.44-117.56,137.45-117.59,137.45z"/>
		</g>
		<g class="st2">
			<g>
				<path class="st7" d="M-156.01,143.66C-156.01,143.66-156.01,143.66-156.01,143.66C-156.01,143.66-156.01,143.66-156.01,143.66z"
					/>
			</g>
		</g>
		<g class="st2">
			<g>
				<path class="st7" d="M-84.87,143.66C-84.87,143.66-84.87,143.66-84.87,143.66C-84.87,143.66-84.87,143.66-84.87,143.66z"/>
			</g>
		</g>
		<g class="st2">
			<g>
				<path class="st3" d="M-114.59,131.02c-0.29-7.46,5.55-13.76,13.01-14.05c7.46-0.29,13.76,5.55,14.05,13.01
					c0.29,7.46-5.55,13.76-13.01,14.05C-107.99,144.32-114.3,138.48-114.59,131.02z M-113.87,130.99
					c0.27,7.06,6.24,12.59,13.31,12.32c7.06-0.27,12.59-6.24,12.32-13.31c-0.27-7.06-6.24-12.59-13.31-12.32
					C-108.62,117.96-114.14,123.93-113.87,130.99z"/>
			</g>
			<g>
				<path class="st3" d="M-151.57,132.45c-0.29-7.46,5.55-13.76,13.01-14.05c7.46-0.29,13.76,5.55,14.05,13.01
					c0.29,7.46-5.55,13.76-13.01,14.05C-144.98,145.75-151.29,139.91-151.57,132.45z M-150.86,132.42
					c0.27,7.06,6.24,12.59,13.31,12.31c7.06-0.27,12.59-6.24,12.32-13.31c-0.27-7.06-6.24-12.59-13.31-12.32
					C-145.6,119.39-151.13,125.36-150.86,132.42z"/>
			</g>
			<g>
				<path class="st3" d="M-124.93,129.89c0.06,0,0.12-0.02,0.18-0.06c5.03-3.21,10.37-0.43,10.42-0.4c0.18,0.09,0.39,0.03,0.49-0.15
					c0.09-0.18,0.03-0.39-0.15-0.49c-0.06-0.03-5.76-3.01-11.15,0.43c-0.17,0.11-0.22,0.33-0.11,0.5
					C-125.18,129.84-125.06,129.9-124.93,129.89z"/>
			</g>
		</g>
	</g>
	<g class="st0">
		<path class="st14" d="M458.26,98.09c7.64,9.67,9.05,23.84,3.48,34.83"/>
		<path class="st9" d="M376.45,205.23c-1.97,10.41-1.61,18.96-1.61,19.36h19.03v-13.02C388.06,209.62,382.26,207.37,376.45,205.23z"
			/>
		<path class="st9" d="M447.21,211.67v12.92H464c0,0,1.28-8.42,0.11-18.85C458.51,207.93,452.82,209.84,447.21,211.67z"/>
		<g class="st2">
			<path class="st10" d="M465.85,201.7c-3.16-16.27-13.82-35.25-46.45-35.25c-28.89,0-40.19,18.87-44.59,35.12l19.05,6.02v17h53.34
				v-17L465.85,201.7z"/>
			<path class="st10" d="M393.87,207.59l-19.05-6.02c-0.34,1.24-0.62,2.46-0.88,3.66c6.65,2.14,13.29,4.39,19.94,6.35V207.59z"/>
			<path class="st10" d="M465.85,201.7l-18.64,5.88v4.08c6.4-1.83,12.89-3.74,19.28-5.93C466.32,204.42,466.11,203.07,465.85,201.7z
				"/>
		</g>
		<path class="st9" d="M407.79,167.37c0,0,0.21,12.83,13.75,12.97c13.54,0.14,14.82-11.95,14.82-11.95S420.99,164.91,407.79,167.37z
			"/>
		<g class="st2">
			<path class="st6" d="M412.4,164.56l0.6,7.11c0,0,1.11,5.02,8.77,5.02c8.58,0,9.84-5.02,9.84-5.02l0.11-8.83l0.03-2.03
				C426.06,163.31,416.88,164.24,412.4,164.56z"/>
			<path class="st5" d="M431.84,154.02l-20.14,2.12l0.52,6.17l0.19,2.26c4.48-0.32,13.66-1.25,19.35-3.76L431.84,154.02z"/>
		</g>
		<path class="st9" d="M448.79,100.37c3.2,7.09,4.77,12.49,4.77,30.73c0,14.23-11.36,28.16-28.74,29.29
			c-16.33,1.06-33.3-5.51-38.39-28.42c-5.09-22.91,2.12-41.15,22.91-46.24C430.12,80.65,445.02,92.03,448.79,100.37z"/>
		<path class="st8" d="M382.14,137.16c0,0-13.51-21.83-7.16-34.04c6.35-12.21,18.05-12.63,18.05-12.63s11.52-17.55,40.96-13.2
			s25.79,21.62,25.79,21.62s10.85,16.41-0.89,37.23l-3.64-1.82c0,0-10.68-10.57-10.72-23.2c0,0-9.54-9.77-23.53-4.88
			c-13.99,4.88-16.08,3.44-21.98,0C399.02,106.24,385.87,144.13,382.14,137.16z"/>
		<path class="st14" d="M389.36,93.39c-6.05-1.41-12.47,2.61-15.28,8.37c-2.81,5.75-2.46,12.75-0.36,18.82
			c1.4,4.05,3.53,7.83,6.26,11.07"/>
		<path class="st9" d="M450.13,128c0,0,12.25-4.45,12.88,8.11c0.52,10.2-8.41,12.36-13.88,8.63"/>
		<g class="st2">
			<path class="st7" d="M450.61,142.09c0.03,0,0.07-0.01,0.1-0.02c0.13-0.06,0.18-0.21,0.12-0.33c-0.03-0.06-2.71-6.1,1.5-8.91
				c1.48-0.99,2.94-1.33,4.34-1.03c2.42,0.53,3.88,2.84,3.89,2.86c0.07,0.12,0.23,0.15,0.35,0.08c0.12-0.07,0.15-0.23,0.08-0.35
				c-0.06-0.1-1.58-2.51-4.21-3.09c-1.54-0.33-3.13,0.03-4.73,1.1c-4.57,3.05-1.71,9.48-1.68,9.54
				C450.42,142.03,450.51,142.09,450.61,142.09z"/>
		</g>
		<g class="st2">
			<path class="st7" d="M456.81,137.16c0.08,0,0.15-0.03,0.2-0.1c0.08-0.11,0.06-0.27-0.05-0.35c-0.04-0.03-4.27-3.12-7.4,0.02
				c-0.1,0.1-0.1,0.26,0,0.36c0.1,0.1,0.26,0.1,0.36,0c2.83-2.83,6.71,0,6.75,0.02C456.71,137.15,456.76,137.16,456.81,137.16z"/>
		</g>
		<g class="st2">
			<path class="st7" d="M422.66,143.53c-3.85,0-4.29-3.2-4.3-3.23c-0.02-0.14,0.08-0.26,0.22-0.28c0.13-0.02,0.26,0.08,0.28,0.22
				c0.02,0.13,0.46,3.15,4.5,2.76c0.14,0,0.26,0.09,0.28,0.23c0.01,0.14-0.09,0.26-0.23,0.28
				C423.15,143.52,422.9,143.53,422.66,143.53z"/>
		</g>
		<path class="st9" d="M390.04,128c0,0-12.25-4.45-12.88,8.11c-0.53,10.53,9.48,12.96,14.91,8.71"/>
		<path class="st8" d="M399.61,122.73c0,0-2.51-2.23,2.79-5.01c5.3-2.78,7.16-2.17,8.02-0.78c0.78,1.27-0.43,3.17-3.44,4.68
			C403.38,123.42,400.97,124.01,399.61,122.73z"/>
		<path class="st13" d="M409.76,131.23c0,1.71-1.14,3.1-2.55,3.1c-1.41,0-2.55-1.39-2.55-3.1c0-1.71,1.14-3.1,2.55-3.1
			C408.62,128.13,409.76,129.52,409.76,131.23z"/>
		<path class="st8" d="M442.88,122.73c0,0,2.51-2.23-2.79-5.01c-5.3-2.78-7.16-2.17-8.02-0.78c-0.78,1.27,0.43,3.17,3.44,4.68
			C439.11,123.42,441.52,124.01,442.88,122.73z"/>
		<path class="st13" d="M431.61,131.23c0,1.71,1.14,3.1,2.55,3.1c1.41,0,2.55-1.39,2.55-3.1c0-1.71-1.14-3.1-2.55-3.1
			C432.75,128.13,431.61,129.52,431.61,131.23z"/>
		<g class="st2">
			<path class="st7" d="M389.56,142.09c-0.03,0-0.07-0.01-0.1-0.02c-0.13-0.06-0.18-0.21-0.12-0.33c0.03-0.06,2.71-6.1-1.5-8.91
				c-1.48-0.99-2.94-1.33-4.34-1.03c-2.42,0.53-3.88,2.84-3.89,2.86c-0.07,0.12-0.23,0.15-0.35,0.08c-0.12-0.07-0.15-0.23-0.08-0.35
				c0.06-0.1,1.58-2.51,4.21-3.09c1.54-0.33,3.13,0.03,4.73,1.1c4.57,3.05,1.71,9.48,1.68,9.54
				C389.75,142.03,389.65,142.09,389.56,142.09z"/>
		</g>
		<g class="st2">
			<path class="st7" d="M383.36,137.16c-0.08,0-0.15-0.03-0.2-0.1c-0.08-0.11-0.06-0.27,0.05-0.35c0.04-0.03,4.27-3.12,7.4,0.02
				c0.1,0.1,0.1,0.26,0,0.36c-0.1,0.1-0.26,0.1-0.36,0c-2.83-2.83-6.71,0-6.75,0.02C383.46,137.15,383.41,137.16,383.36,137.16z"/>
		</g>
		<g class="st2">
			<path class="st7" d="M423.52,137.45c-0.1,0-0.19-0.05-0.23-0.15c-0.06-0.13,0-0.28,0.12-0.33c0.02-0.01,2.04-0.94,2.93-2.75
				c0.7-1.42,0.48-3.54-0.46-4.46c-0.57-0.55-1.33-0.6-2.22-0.13c-0.03,0.01-0.07,0.04-0.13,0.07c-3.1,1.8-4.5,0.99-5.13,0
				c-1.15-1.83-0.16-16.26-0.04-17.9c0.01-0.14,0.13-0.24,0.27-0.23c0.14,0.01,0.24,0.13,0.23,0.27
				c-0.32,4.41-0.94,16.17-0.04,17.59c0.74,1.18,2.24,1.12,4.45-0.16c0.07-0.04,0.12-0.07,0.15-0.09c1.08-0.56,2.08-0.49,2.8,0.22
				c1.1,1.07,1.36,3.43,0.56,5.05c-0.97,1.97-3.08,2.94-3.17,2.98C423.59,137.44,423.55,137.45,423.52,137.45z"/>
		</g>
		<g class="st2">
			<g>
				<path class="st7" d="M385.1,143.66C385.1,143.66,385.1,143.66,385.1,143.66C385.1,143.66,385.1,143.66,385.1,143.66z"/>
			</g>
		</g>
		<g class="st2">
			<g>
				<path class="st7" d="M456.24,143.66C456.24,143.66,456.24,143.66,456.24,143.66C456.24,143.66,456.24,143.66,456.24,143.66z"/>
			</g>
		</g>
		<path class="st8" d="M392.2,92.47c-1.79-0.48-3.28-1.89-3.96-3.61c-0.35-0.89,0.55-1.82,1.42-1.42c1.13,0.51,2.04,1.53,2.33,2.74
			c-0.09-1.13-0.17-2.26-0.26-3.4c-0.05-0.62-0.08-1.31,0.3-1.8c0.49-0.64,1.54-0.65,2.17-0.15c0.64,0.5,0.9,1.36,0.87,2.16
			c-0.03,0.81-0.32,1.58-0.6,2.34"/>
		<path class="st14" d="M395.95,105.08c1.7,3.54,5.69,5.56,9.6,5.89c3.92,0.33,7.81-0.76,11.53-2.02c3.72-1.26,7.43-2.72,11.34-3.15
			c8.93-0.98,18.21,4.05,22.26,12.07"/>
		<rect x="393.87" y="200.91" class="st15" width="53.34" height="3.98"/>
		<rect x="393.87" y="209.61" class="st15" width="53.34" height="3.98"/>
	</g>
	<g class="st0">
		<g class="st2">
			<path class="st5" d="M48.72,377.5c-3.2-3.12-7.16-5.82-12.05-7.86c-15.02,3.95-30.67,5.15-46.44,1.78
				c-2.75,1.58-5.16,3.44-7.31,5.47C3.89,385.79,27.28,384.54,48.72,377.5z"/>
			<path class="st6" d="M53.64,383.43c-1.4-2.09-3.02-4.08-4.92-5.93c-21.44,7.04-44.83,8.29-65.8-0.6c-2.64,2.5-4.84,5.3-6.69,8.24
				C1.25,394.6,28.91,392.89,53.64,383.43z"/>
			<path class="st6" d="M60.63,401.3c-0.54-2.88-1.31-5.86-2.4-8.8c-26.31,9.66-58.28,7.87-85.67-0.34
				c-1.26,2.92-2.25,5.88-3.03,8.76C-1.64,411.2,32.33,413.02,60.63,401.3z"/>
			<path class="st5" d="M-33.18,423.79H1.3c-11.74-0.88-23.35-2.89-34.41-5.84C-33.28,421.38-33.18,423.59-33.18,423.79z"/>
			<path class="st6" d="M61.55,408.53c-1.52,0.77-3.07,1.46-4.68,2.06c-28.77,9.25-61.23,10.17-89.09-1.36
				c-0.52,3.34-0.77,6.32-0.89,8.72c11.05,2.95,22.67,4.96,34.41,5.84h26.03c11.82-0.93,23.42-3.18,34.37-6.97
				C61.79,414.46,61.79,411.63,61.55,408.53z"/>
			<path class="st5" d="M61.7,416.82c-10.95,3.78-22.56,6.04-34.37,6.97h33.75C61.08,423.79,61.54,421.07,61.7,416.82z"/>
			<path class="st5" d="M56.88,410.59c1.6-0.6,3.16-1.3,4.68-2.06c-0.17-2.29-0.46-4.72-0.93-7.22
				c-28.29,11.72-62.26,9.89-91.1-0.38c-0.78,2.9-1.34,5.7-1.74,8.31C-4.36,420.76,28.11,419.84,56.88,410.59z"/>
			<path class="st5" d="M58.22,392.5c-1.15-3.11-2.64-6.18-4.59-9.07c-24.73,9.46-52.38,11.17-77.4,1.7
				c-1.43,2.28-2.64,4.64-3.68,7.03C-0.05,400.37,31.91,402.17,58.22,392.5z"/>
			<path class="st6" d="M36.67,369.64c-6.01-2.5-13.41-3.99-22.54-3.99c-9.88,0-17.7,2.22-23.9,5.77
				C6,374.79,21.65,373.59,36.67,369.64z"/>
			<g>
				<line class="st5" x1="-15.95" y1="423.79" x2="-14.24" y2="399.06"/>
				<line class="st5" x1="46.64" y1="423.79" x2="46.64" y2="399.06"/>
			</g>
		</g>
		<path class="st9" d="M2.56,366.56c0,0,0.21,12.83,13.75,12.97c13.54,0.14,14.82-11.95,14.82-11.95S15.76,364.1,2.56,366.56z"/>
		<g class="st2">
			<path class="st6" d="M7.17,365.79l0.6,5.08c0,0,1.11,5.02,8.77,5.02c8.58,0,9.84-5.02,9.84-5.02l0.11-6.8l0.03-2.03
				C20.83,364.54,11.66,365.47,7.17,365.79z"/>
			<path class="st5" d="M26.61,353.22l-20.14,2.12l0.52,6.17l0.19,4.29c4.48-0.32,13.66-1.25,19.35-3.76L26.61,353.22z"/>
		</g>
		<path class="st9" d="M43.56,299.57c3.2,7.09,4.77,12.49,4.77,30.73c0,14.23-11.36,28.16-28.74,29.29
			c-16.33,1.06-33.3-5.51-38.39-28.42c-5.09-22.91,2.12-41.15,22.91-46.24C24.89,279.85,39.79,291.22,43.56,299.57z"/>
		<path class="st8" d="M-17.19,330.18c0,0,3.25,5,13.35,8.25c10.11,3.25,13.2-0.72,18.62-0.72s4.56,1.49,13.06,1.89
			c8.5,0.4,14.26-6.95,16.66-11.15c0,0,7.89,32.82-29.72,32.83C-19.42,361.28-17.19,330.18-17.19,330.18z"/>
		<path class="st16" d="M4.16,361.27c0,0,0.76-0.91,2.3-0.62c3.37,0.64,10.48,1.36,21.46-0.65"/>
		<path class="st9" d="M14.78,340.72c0,0-6.92,0.36-7.59,6.84c-0.62,5.97,6.06,1.03,8.34,0.94c2.29-0.09,7.96,5.52,7.94-0.66
			C23.45,342.15,17.5,340.37,14.78,340.72z"/>
		<path class="st8" d="M40.26,282.09c23.03,8.49,16.35,46.93,14.28,48.46c-2.65,1.96-6.62,1.43-9.15-0.69
			c-2.53-2.11,1.3-0.98-0.74-3.57c-6.02-7.61-9.06-24.42-11.67-29.62c-1.33-2.64-2.54-5.53-2.16-8.46c0.38-2.93,2.93-5.77,5.86-5.43
			"/>
		<path class="st8" d="M-17.84,327.87c0,0,11.04-12.32,12.76-23.14c0,0,6.1,4.38,14.63,4.2c3.58-0.08,3.58-3.08,3.58-3.08
			s7.17,4.91,13.25,3.63c3.13-0.66,4.37-4.26,4.37-4.26s4.24,6.47,10.08,1.71c3.75-3.06,7.76-18.52,2.7-19.96
			c0,0,2.76-14.71-12.99-12.55c-15.75,2.17-18.35-0.43-27.5,0.06c-9.14,0.48-17.09,10.81-17.09,10.81
			c-21.31,13.47-13.55,39.46-11.03,42.59C-18.48,336.05-17.84,327.87-17.84,327.87z"/>
		<path class="st8" d="M-15.3,286.12c-4.83,1.2-11.42,7.89-14.35,12.63c-0.63,1.02-1.23,2.1-1.39,3.29
			c-0.16,1.19,0.23,2.52,1.22,3.19c0.99,0.67,2.61,0.38,3.05-0.74c-2.22,2.58-4.49,5.25-5.62,8.47c-0.78,2.23-0.89,4.8-0.08,6.97
			c0.55,1.49,2.45,1.93,3.68,0.93l0,0c-1.45,2.38-1.23,5.66,0.52,7.83c1.75,2.17,4.91,3.07,7.54,2.16"/>
		<path class="st4" d="M-15.7,285.32c-5.2,2.57-9.83,6.29-13.45,10.82c-1.34,1.67-2.59,3.61-2.58,5.75
			c0.01,2.14,1.83,4.38,3.95,4.06c-3.78,3.41-5.82,8.66-5.35,13.72c0.09,1,0.31,2.06,1.03,2.76c0.72,0.7,2.07,0.82,2.64,0
			c-0.81,2.28-0.57,4.91,0.64,7.01c1.21,2.09,3.38,3.61,5.76,4.04"/>
		<path class="st8" d="M42.19,282.96c4.27,1.22,13.38,10.44,15.97,15.26c0.56,1.04,1.09,2.14,1.23,3.35
			c0.14,1.21-0.2,2.56-1.08,3.25c-0.88,0.68-2.3,0.38-2.7-0.75c1.97,2.63,3.97,5.33,4.97,8.6c0.69,2.26,0.78,4.88,0.07,7.08
			c-0.49,1.51-2.17,1.96-3.25,0.94l0,0c1.28,2.42,1.09,5.75-0.46,7.96c-1.55,2.2-4.34,3.12-6.67,2.19"/>
		<path class="st8" d="M-14.42,287.32c-1.97-0.98-5.38-3.79-3.67-5.16c1.04-0.84,2.37,1.33,3.1,2.45c-0.26-1.23-0.52-2.45-0.78-3.68
			c-0.07-0.31-0.13-0.64-0.07-0.96c0.06-0.32,0.28-0.62,0.6-0.68c0.47-0.08,0.84,0.38,1.08,0.8c1.11,1.97,1.83,4.16,2.11,6.4"/>
		<path class="st9" d="M44.9,327.19c0,0,12.25-4.45,12.88,8.11c0.52,10.2-8.41,12.36-13.88,8.63"/>
		<g class="st2">
			<path class="st7" d="M45.38,341.29c0.03,0,0.07-0.01,0.1-0.02c0.13-0.06,0.18-0.21,0.12-0.33c-0.03-0.06-2.71-6.1,1.5-8.91
				c1.48-0.99,2.94-1.33,4.34-1.03c2.42,0.53,3.88,2.84,3.89,2.86c0.07,0.12,0.23,0.15,0.35,0.08c0.12-0.07,0.15-0.23,0.08-0.35
				c-0.06-0.1-1.58-2.51-4.21-3.09c-1.54-0.33-3.13,0.03-4.73,1.1c-4.57,3.05-1.71,9.48-1.68,9.54
				C45.19,341.23,45.29,341.29,45.38,341.29z"/>
		</g>
		<g class="st2">
			<path class="st7" d="M51.58,336.36c0.08,0,0.15-0.03,0.2-0.1c0.08-0.11,0.06-0.27-0.05-0.35c-0.04-0.03-4.27-3.12-7.4,0.02
				c-0.1,0.1-0.1,0.26,0,0.36c0.1,0.1,0.26,0.1,0.36,0c2.83-2.83,6.71,0,6.75,0.02C51.48,336.34,51.53,336.36,51.58,336.36z"/>
		</g>
		<g class="st2">
			<path class="st7" d="M17.43,346.24c-3.85,0-4.29-3.2-4.3-3.23c-0.02-0.14,0.08-0.26,0.22-0.28c0.13-0.02,0.26,0.08,0.28,0.22
				c0.02,0.13,0.46,3.15,4.5,2.76c0.14,0,0.26,0.09,0.28,0.23c0.01,0.14-0.09,0.26-0.23,0.28
				C17.92,346.23,17.67,346.24,17.43,346.24z"/>
		</g>
		<path class="st9" d="M-15.19,327.19c0,0-12.25-4.45-12.88,8.11c-0.53,10.53,9.48,12.96,14.91,8.71"/>
		<path class="st8" d="M-5.62,321.93c0,0-2.51-2.23,2.79-5.01c5.3-2.78,7.16-2.17,8.02-0.78c0.78,1.27-0.43,3.17-3.44,4.68
			C-1.85,322.62-4.26,323.21-5.62,321.93z"/>
		<path class="st13" d="M4.54,330.43c0,1.71-1.14,3.1-2.55,3.1s-2.55-1.39-2.55-3.1c0-1.71,1.14-3.1,2.55-3.1
			S4.54,328.71,4.54,330.43z"/>
		<path class="st8" d="M37.65,321.93c0,0,2.51-2.23-2.79-5.01c-5.3-2.78-7.16-2.17-8.02-0.78c-0.78,1.27,0.43,3.17,3.44,4.68
			C33.89,322.62,36.29,323.21,37.65,321.93z"/>
		<path class="st13" d="M26.38,330.43c0,1.71,1.14,3.1,2.55,3.1c1.41,0,2.55-1.39,2.55-3.1c0-1.71-1.14-3.1-2.55-3.1
			C27.52,327.32,26.38,328.71,26.38,330.43z"/>
		<g class="st2">
			<path class="st7" d="M-15.67,341.29c-0.03,0-0.07-0.01-0.1-0.02c-0.13-0.06-0.18-0.21-0.12-0.33c0.03-0.06,2.71-6.1-1.5-8.91
				c-1.48-0.99-2.94-1.33-4.34-1.03c-2.42,0.53-3.88,2.84-3.89,2.86c-0.07,0.12-0.23,0.15-0.35,0.08c-0.12-0.07-0.15-0.23-0.08-0.35
				c0.06-0.1,1.58-2.51,4.21-3.09c1.54-0.33,3.13,0.03,4.73,1.1c4.57,3.05,1.71,9.48,1.68,9.54
				C-15.48,341.23-15.57,341.29-15.67,341.29z"/>
		</g>
		<g class="st2">
			<path class="st7" d="M-21.87,336.36c-0.08,0-0.15-0.03-0.2-0.1c-0.08-0.11-0.06-0.27,0.05-0.35c0.04-0.03,4.27-3.12,7.4,0.02
				c0.1,0.1,0.1,0.26,0,0.36c-0.1,0.1-0.26,0.1-0.36,0c-2.83-2.83-6.71,0-6.75,0.02C-21.77,336.34-21.82,336.36-21.87,336.36z"/>
		</g>
		<g class="st2">
			<path class="st7" d="M18.29,336.64c-0.1,0-0.19-0.05-0.23-0.15c-0.06-0.13,0-0.28,0.12-0.33c0.02-0.01,2.04-0.94,2.93-2.75
				c0.7-1.42,0.48-3.54-0.46-4.46c-0.57-0.55-1.33-0.6-2.22-0.13c-0.03,0.01-0.07,0.04-0.13,0.07c-3.1,1.8-4.5,0.99-5.13,0
				c-1.15-1.83-0.16-16.26-0.04-17.9c0.01-0.14,0.13-0.24,0.27-0.23c0.14,0.01,0.24,0.13,0.23,0.27
				c-0.32,4.41-0.94,16.17-0.04,17.59c0.74,1.18,2.24,1.12,4.45-0.16c0.07-0.04,0.12-0.07,0.15-0.09c1.08-0.56,2.08-0.49,2.8,0.22
				c1.1,1.07,1.36,3.43,0.56,5.05c-0.97,1.97-3.08,2.94-3.17,2.98C18.36,336.63,18.32,336.64,18.29,336.64z"/>
		</g>
		<g class="st2">
			<g>
				<path class="st7" d="M-20.13,342.86C-20.13,342.86-20.13,342.86-20.13,342.86C-20.13,342.86-20.13,342.86-20.13,342.86z"/>
			</g>
		</g>
		<g class="st2">
			<g>
				<path class="st7" d="M51.01,342.86C51.01,342.86,51.01,342.86,51.01,342.86C51.01,342.86,51.01,342.86,51.01,342.86z"/>
			</g>
		</g>
		<path class="st4" d="M-8.22,303.16c5.15,4.35,11.94,6.71,18.68,6.48c1.34-0.04,2.81-0.25,3.69-1.26c0.88-1.01,0.56-3.01-0.77-3.18
			c2.29,2.55,5.39,4.36,8.74,5.1c1.63,0.36,3.4,0.46,4.93-0.23c2.49-1.12,3.71-4.41,2.56-6.88c1.01,1.74,2.05,3.5,3.47,4.92
			c1.43,1.42,3.33,2.48,5.34,2.47c2.01,0,4.08-1.27,4.61-3.22"/>
	</g>
	<g class="st0">
		<g class="st2">
			<path class="st3" d="M249.34,87.61c0,0-14.77,11.26-16.26,46.56c-0.3,7.03-6.44,16.99-7.4,25.16
				c-1.06,8.95,2.72,23.42,2.72,23.42s2.29,0.28,5.98,0.68c0.45-4.6,1.29-13.02,1.29-13.02l1.92,13.36
				c12.37,1.28,34.17,3.2,45.96,2.23l-0.2-96.57L249.34,87.61z"/>
		</g>
		<g class="st2">
			<path class="st3" d="M339.62,159.09c-1-8.16-7.28-18.09-7.51-25.13c-1.13-35.1-15.26-45.5-15.26-45.5l-35.2,0.97l0.2,96.57
				c12.17,0.95,34.98-1.22,47.09-2.55c0.8-4.06,1.84-11.19,1.84-11.19l2.49,10.7c2.34-0.27,3.72-0.45,3.72-0.45
				S340.72,168.04,339.62,159.09z"/>
		</g>
		<path class="st4" d="M302.9,80.66c17.35,5.73,30.01,23.41,29.84,41.68c-0.05,5.98-1.33,12.08,0.22,17.85
			c1.08,4.01,3.44,7.53,5.17,11.3c4.5,9.82,4.54,21.59,0.1,31.43"/>
		<path class="st4" d="M257.87,82.7c-1.77,0.4-21.83,11.01-24.87,35.38c-0.5,4.05,0.11,8.17-0.16,12.25
			c-0.36,5.65-2.15,11.09-3.92,16.46c-1.77,5.37-3.54,10.83-3.86,16.47c-0.33,5.65,0.95,11.61,4.67,15.88"/>
		<path class="st9" d="M239.74,198.88c-1.95,10.42-1.9,25.31-1.9,25.71l19.03-0.04l0.31-19.36
			C251.36,203.25,245.55,201.01,239.74,198.88z"/>
		<path class="st9" d="M309.2,206.75l1.01,17.69l16.79-0.03c0,0,1.17-13.68-0.01-24.1C321.38,202.51,314.8,204.91,309.2,206.75z"/>
		<g class="st2">
			<path class="st6" d="M328.79,201.51c-3.19-16.26-13.9-35.22-46.52-35.15c-28.89,0.06-40.15,18.96-44.51,35.21l19.07,5.98l0.03,17
				l53.34-0.11l-0.04-17L328.79,201.51z"/>
		</g>
		<g class="st2">
			<defs>
				<path id="SVGID_3_" d="M328.79,201.51c-3.19-16.26-13.9-35.22-46.52-35.15c-28.89,0.06-40.15,18.96-44.51,35.21l19.07,5.98
					l0.03,17l53.34-0.11l-0.04-17L328.79,201.51z"/>
			</defs>
			<clipPath id="SVGID_4_">
				<use xlink:href="#SVGID_3_"  style="overflow:visible;"/>
			</clipPath>
			<g class="st17">
				<path class="st3" d="M261.01,195.01c0,0-1.64-3.06-0.55-3.94c1.09-0.87,1.75,3.94,1.75,3.94s1.73-3.5,3.16-3.06
					c1.43,0.44-1.96,3.74-1.96,3.74s3.05,1.18,1.96,2.49c-1.09,1.31-2.92-1.2-2.92-1.2s0.08,3.28-1.12,2.95
					c-1.2-0.33-0.22-3.39-0.22-3.39s-4.04,0.49-4.04-0.85C257.08,194.35,261.01,195.01,261.01,195.01z"/>
				<path class="st3" d="M308.72,187.21c0,0-1.64-3.07-0.55-3.94c1.1-0.88,1.75,3.94,1.75,3.94s1.74-3.5,3.17-3.07
					c1.43,0.44-1.96,3.75-1.96,3.75s3.05,1.18,1.96,2.49c-1.09,1.31-2.92-1.2-2.92-1.2s0.08,3.29-1.12,2.96
					c-1.2-0.33-0.22-3.4-0.22-3.4s-4.05,0.49-4.05-0.85S308.72,187.21,308.72,187.21z"/>
				<path class="st3" d="M293.6,194.09c0,0-1.64-3.07-0.55-3.94c1.1-0.88,1.75,3.94,1.75,3.94s1.74-3.5,3.17-3.07
					c1.43,0.44-1.96,3.75-1.96,3.75s3.05,1.18,1.96,2.49c-1.09,1.31-2.92-1.2-2.92-1.2s0.08,3.29-1.12,2.96
					c-1.2-0.33-0.22-3.39-0.22-3.39s-4.05,0.49-4.05-0.85C289.66,193.43,293.6,194.09,293.6,194.09z"/>
				<path class="st3" d="M243.51,188.11c0,0-1.64-3.06-0.55-3.94c1.09-0.87,1.75,3.94,1.75,3.94s1.73-3.5,3.16-3.06
					c1.43,0.44-1.96,3.74-1.96,3.74s3.05,1.18,1.96,2.49c-1.09,1.31-2.92-1.2-2.92-1.2s0.08,3.28-1.12,2.95
					c-1.2-0.33-0.22-3.39-0.22-3.39s-4.04,0.49-4.04-0.85S243.51,188.11,243.51,188.11z"/>
				<path class="st3" d="M269.07,213.46c0,0-3.39-0.75-3.34-2.15c0.05-1.4,4.13,1.23,4.13,1.23s-1.53-3.59-0.27-4.39
					c1.26-0.8,1.56,3.92,1.56,3.92s2.88-1.55,3.17,0.13c0.29,1.68-2.81,1.43-2.81,1.43s2.54,2.07,1.51,2.77
					c-1.03,0.7-2.72-2.04-2.72-2.04s-2.26,3.39-3.28,2.52C266.01,216.02,269.07,213.46,269.07,213.46z"/>
				<path class="st3" d="M304.92,204.49c0,0-3.4-0.75-3.35-2.15c0.05-1.4,4.13,1.24,4.13,1.24s-1.53-3.6-0.27-4.4
					c1.26-0.8,1.57,3.93,1.57,3.93s2.88-1.55,3.17,0.13c0.29,1.68-2.82,1.44-2.82,1.44s2.55,2.07,1.52,2.78
					c-1.03,0.7-2.72-2.04-2.72-2.04s-2.27,3.39-3.28,2.52C301.85,207.05,304.92,204.49,304.92,204.49z"/>
				<path class="st3" d="M319.23,198.71c0,0-2.5-2.42-1.73-3.58c0.77-1.17,2.88,3.22,2.88,3.22s0.58-3.87,2.08-3.89
					c1.5-0.02-0.72,4.17-0.72,4.17s3.27,0.19,2.63,1.77c-0.63,1.58-3.15-0.25-3.15-0.25s1.09,3.1-0.16,3.16
					c-1.25,0.06-1.25-3.16-1.25-3.16s-3.71,1.71-4.12,0.43C315.27,199.3,319.23,198.71,319.23,198.71z"/>
				<path class="st3" d="M281.79,222.47c0,0-3.4-0.75-3.35-2.15c0.05-1.4,4.13,1.24,4.13,1.24s-1.53-3.6-0.27-4.4
					c1.26-0.8,1.57,3.93,1.57,3.93s2.88-1.55,3.17,0.13c0.29,1.68-2.82,1.44-2.82,1.44s2.55,2.07,1.52,2.78
					c-1.03,0.7-2.72-2.04-2.72-2.04s-2.27,3.39-3.28,2.52C278.73,225.04,281.79,222.47,281.79,222.47z"/>
				<path class="st3" d="M303.23,222.47c0,0-3.4-0.75-3.35-2.15c0.05-1.4,4.13,1.24,4.13,1.24s-1.53-3.6-0.27-4.4
					c1.26-0.8,1.57,3.93,1.57,3.93s2.88-1.55,3.17,0.13c0.29,1.68-2.82,1.44-2.82,1.44s2.55,2.07,1.52,2.78
					c-1.03,0.7-2.72-2.04-2.72-2.04s-2.27,3.39-3.28,2.52C300.17,225.04,303.23,222.47,303.23,222.47z"/>
				<path class="st3" d="M260.59,225.35c0,0-3.39-0.75-3.34-2.15s4.13,1.23,4.13,1.23s-1.53-3.59-0.27-4.39
					c1.26-0.8,1.56,3.92,1.56,3.92s2.88-1.55,3.17,0.13c0.29,1.68-2.81,1.43-2.81,1.43s2.54,2.07,1.51,2.77
					c-1.03,0.7-2.72-2.04-2.72-2.04s-2.26,3.39-3.28,2.52C257.53,227.91,260.59,225.35,260.59,225.35z"/>
				<path class="st3" d="M277.81,200.64c0,0-2.87-1.95-2.31-3.23c0.56-1.28,3.38,2.67,3.38,2.67s-0.09-3.9,1.38-4.18
					c1.47-0.28,0,4.22,0,4.22s3.24-0.37,2.89,1.29c-0.35,1.67-3.14,0.29-3.14,0.29s1.6,2.86,0.38,3.13c-1.22,0.27-1.77-2.9-1.77-2.9
					s-3.36,2.31-3.98,1.13C274.02,201.89,277.81,200.64,277.81,200.64z"/>
				<path class="st3" d="M310.49,172.62c0,0-2.88-1.95-2.32-3.24c0.56-1.28,3.38,2.68,3.38,2.68s-0.09-3.91,1.38-4.19
					c1.47-0.28,0,4.23,0,4.23s3.25-0.37,2.9,1.3c-0.35,1.67-3.15,0.29-3.15,0.29s1.6,2.87,0.38,3.14c-1.22,0.27-1.77-2.9-1.77-2.9
					s-3.36,2.31-3.98,1.13C306.7,173.87,310.49,172.62,310.49,172.62z"/>
				<path class="st3" d="M293.16,212.03c0,0-2.88-1.95-2.32-3.24c0.56-1.28,3.38,2.68,3.38,2.68s-0.09-3.91,1.38-4.19
					c1.47-0.28,0,4.23,0,4.23s3.25-0.37,2.9,1.3c-0.35,1.67-3.15,0.29-3.15,0.29s1.6,2.87,0.38,3.14c-1.22,0.27-1.77-2.9-1.77-2.9
					s-3.36,2.31-3.98,1.13C289.36,213.28,293.16,212.03,293.16,212.03z"/>
				<path class="st3" d="M273.08,185.4c0,0-2.87-1.95-2.31-3.23c0.56-1.28,3.38,2.67,3.38,2.67s-0.09-3.9,1.38-4.18
					c1.47-0.28,0,4.22,0,4.22s3.24-0.37,2.89,1.29c-0.35,1.67-3.14,0.29-3.14,0.29s1.6,2.86,0.38,3.13c-1.22,0.27-1.77-2.9-1.77-2.9
					s-3.36,2.31-3.98,1.13C269.29,186.64,273.08,185.4,273.08,185.4z"/>
				<path class="st3" d="M245.98,203.83c0,0-2.87-1.95-2.31-3.23c0.56-1.28,3.38,2.67,3.38,2.67s-0.09-3.9,1.38-4.18
					c1.47-0.28,0,4.22,0,4.22s3.24-0.37,2.89,1.29c-0.35,1.67-3.14,0.29-3.14,0.29s1.6,2.86,0.38,3.13c-1.22,0.27-1.77-2.9-1.77-2.9
					s-3.36,2.31-3.98,1.13C242.19,205.07,245.98,203.83,245.98,203.83z"/>
				<path class="st3" d="M256.81,178.63c0,0-2.87-1.95-2.31-3.23c0.56-1.28,3.38,2.67,3.38,2.67s-0.09-3.9,1.38-4.18
					c1.47-0.28,0,4.22,0,4.22s3.24-0.37,2.89,1.29c-0.35,1.67-3.14,0.29-3.14,0.29s1.6,2.86,0.38,3.13c-1.22,0.27-1.77-2.9-1.77-2.9
					s-3.36,2.31-3.98,1.13C253.02,179.88,256.81,178.63,256.81,178.63z"/>
			</g>
		</g>
		<path class="st9" d="M264.18,169.44c0,0,3.59,19.6,20.52,19.56c19.57-0.04,19.53-18.94,19.53-18.94S288.3,161.29,264.18,169.44z"
			/>
		<g class="st2">
			<path class="st6" d="M294.12,168.49l0.05-5.35l0.03-2.03c-5.69,2.5-14.86,3.44-19.35,3.76v3.62"/>
			<path class="st5" d="M294.28,154.33l-20.14,2.12l0.52,6.17l0.19,2.26c4.48-0.32,13.66-1.25,19.35-3.76L294.28,154.33z"/>
		</g>
		<path class="st9" d="M311.23,100.68c3.2,7.09,4.77,12.49,4.77,30.73c0,14.23-11.36,28.16-28.74,29.29
			c-16.33,1.06-33.3-5.51-38.39-28.42c-5.09-22.91,2.12-41.15,22.91-46.24C292.57,80.96,307.46,92.34,311.23,100.68z"/>
		<path class="st8" d="M277.32,79.92c0,0-47.04-7.09-36.25,50.46c0,0,2.57-3.37,8.82-2.8c6.26,0.57,13.71-19.92,14.44-27.29
			c0,0,29.34,27.21,51.17,27.21c3.35,0,6.77,1.71,7.48,2.87c0.71,1.17,8.9-25.04-3.98-39.63C303.18,72.83,286.94,76.12,277.32,79.92
			z"/>
		<path class="st8" d="M273.61,83.54c-2.37-1.98-4.03-4.79-4.67-7.81c-0.18-0.87,0.75-1.57,1.5-1.1c2.01,1.25,3.54,3.3,4.07,5.62
			c-0.15-2.34-0.3-4.68-0.45-7.03c-0.06-0.95-0.04-2.08,0.74-2.64c0.64-0.46,1.58-0.28,2.19,0.21c0.62,0.49,0.97,1.24,1.26,1.97
			c1.21,3.14,1.44,6.65,0.65,9.92"/>
		<path class="st4" d="M261.55,98.86c7.02,10.09,17.24,17.92,28.82,22.07c11.57,4.15,24.44,4.59,36.28,1.25"/>
		<path class="st9" d="M312.58,128.31c0,0,12.25-4.45,12.88,8.11c0.52,10.2-8.41,12.36-13.88,8.63"/>
		<g class="st2">
			<path class="st7" d="M313.05,142.4c0.03,0,0.07-0.01,0.1-0.02c0.13-0.06,0.18-0.21,0.12-0.33c-0.03-0.06-2.71-6.1,1.5-8.91
				c1.48-0.99,2.94-1.33,4.34-1.03c2.42,0.53,3.88,2.84,3.89,2.86c0.07,0.12,0.23,0.15,0.35,0.08c0.12-0.07,0.15-0.23,0.08-0.35
				c-0.06-0.1-1.58-2.51-4.21-3.09c-1.54-0.33-3.13,0.03-4.73,1.1c-4.57,3.05-1.71,9.48-1.68,9.54
				C312.87,142.34,312.96,142.4,313.05,142.4z"/>
		</g>
		<g class="st2">
			<path class="st7" d="M319.26,137.47c0.08,0,0.15-0.03,0.2-0.1c0.08-0.11,0.06-0.27-0.05-0.35c-0.04-0.03-4.27-3.12-7.4,0.02
				c-0.1,0.1-0.1,0.26,0,0.36c0.1,0.1,0.26,0.1,0.36,0c2.83-2.83,6.71,0,6.75,0.02C319.15,137.45,319.2,137.47,319.26,137.47z"/>
		</g>
		<g class="st2">
			<path class="st7" d="M285.1,143.83c-3.85,0-4.29-3.2-4.3-3.23c-0.02-0.14,0.08-0.26,0.22-0.28c0.13-0.02,0.26,0.08,0.28,0.22
				c0.02,0.13,0.46,3.15,4.5,2.76c0.14,0,0.26,0.09,0.28,0.23c0.01,0.14-0.09,0.26-0.23,0.28
				C285.59,143.82,285.34,143.83,285.1,143.83z"/>
		</g>
		<path class="st9" d="M252.48,128.31c0,0-12.25-4.45-12.88,8.11c-0.53,10.53,9.48,12.96,14.91,8.71"/>
		<path class="st8" d="M262.06,123.04c0,0-2.51-2.23,2.79-5.01c5.3-2.78,7.16-2.17,8.02-0.78c0.78,1.27-0.43,3.17-3.44,4.68
			C265.82,123.73,263.42,124.32,262.06,123.04z"/>
		<path class="st13" d="M272.21,131.54c0,1.71-1.14,3.1-2.55,3.1c-1.41,0-2.55-1.39-2.55-3.1c0-1.71,1.14-3.1,2.55-3.1
			C271.07,128.43,272.21,129.82,272.21,131.54z"/>
		<path class="st8" d="M305.32,123.04c0,0,2.51-2.23-2.79-5.01c-5.3-2.78-7.16-2.17-8.02-0.78c-0.78,1.27,0.43,3.17,3.44,4.68
			C301.56,123.73,303.96,124.32,305.32,123.04z"/>
		<path class="st13" d="M294.05,131.54c0,1.71,1.14,3.1,2.55,3.1c1.41,0,2.55-1.39,2.55-3.1c0-1.71-1.14-3.1-2.55-3.1
			C295.19,128.43,294.05,129.82,294.05,131.54z"/>
		<g class="st2">
			<path class="st7" d="M252,142.4c-0.03,0-0.07-0.01-0.1-0.02c-0.13-0.06-0.18-0.21-0.12-0.33c0.03-0.06,2.71-6.1-1.5-8.91
				c-1.48-0.99-2.94-1.33-4.34-1.03c-2.42,0.53-3.88,2.84-3.89,2.86c-0.07,0.12-0.23,0.15-0.35,0.08c-0.12-0.07-0.15-0.23-0.08-0.35
				c0.06-0.1,1.58-2.51,4.21-3.09c1.54-0.33,3.13,0.03,4.73,1.1c4.57,3.05,1.71,9.48,1.68,9.54C252.19,142.34,252.1,142.4,252,142.4
				z"/>
		</g>
		<g class="st2">
			<path class="st7" d="M245.8,137.47c-0.08,0-0.15-0.03-0.2-0.1c-0.08-0.11-0.06-0.27,0.05-0.35c0.04-0.03,4.27-3.12,7.4,0.02
				c0.1,0.1,0.1,0.26,0,0.36c-0.1,0.1-0.26,0.1-0.36,0c-2.83-2.83-6.71,0-6.75,0.02C245.91,137.45,245.85,137.47,245.8,137.47z"/>
		</g>
		<g class="st2">
			<path class="st7" d="M285.96,137.75c-0.1,0-0.19-0.05-0.23-0.15c-0.06-0.13,0-0.28,0.12-0.33c0.02-0.01,2.04-0.94,2.93-2.75
				c0.7-1.42,0.48-3.54-0.46-4.46c-0.57-0.55-1.33-0.6-2.22-0.13c-0.03,0.01-0.07,0.04-0.13,0.07c-3.1,1.8-4.5,0.99-5.13,0
				c-1.15-1.83-0.16-16.26-0.04-17.9c0.01-0.14,0.13-0.24,0.27-0.23c0.14,0.01,0.24,0.13,0.23,0.27
				c-0.32,4.41-0.94,16.17-0.04,17.59c0.74,1.18,2.24,1.12,4.45-0.16c0.07-0.04,0.12-0.07,0.15-0.09c1.08-0.56,2.08-0.49,2.8,0.22
				c1.1,1.07,1.36,3.43,0.56,5.05c-0.97,1.97-3.08,2.94-3.17,2.98C286.03,137.75,286,137.75,285.96,137.75z"/>
		</g>
		<g class="st2">
			<g>
				<path class="st6" d="M250.57,155.49c-0.96,0-1.89-0.2-2.77-0.61c-1.62-0.74-2.86-2.07-3.48-3.74c-1.1-2.96,0.03-6.32,2.71-7.99
					c0.18-0.11,0.4-0.15,0.61-0.1c0.21,0.05,0.39,0.18,0.5,0.36c0.11,0.18,0.15,0.4,0.1,0.61c-0.05,0.21-0.18,0.39-0.36,0.5
					c-2.03,1.27-2.89,3.82-2.05,6.06c0.47,1.27,1.41,2.27,2.64,2.84c1.23,0.56,2.61,0.61,3.87,0.14c1.83-0.68,3.08-2.31,3.27-4.26
					c0.04-0.43,0.13-0.93,0.45-0.92l1.01,1.23c-0.25,2.56-1.76,4.55-4.17,5.45C252.15,155.35,251.37,155.49,250.57,155.49z
					 M247.54,143.97C247.54,143.97,247.54,143.97,247.54,143.97C247.54,143.97,247.54,143.97,247.54,143.97z"/>
			</g>
		</g>
		<g class="st2">
			<g>
				<path class="st6" d="M313.31,155.07c-2.41-0.9-3.92-2.89-4.17-5.45l1.01-1.23c0.33-0.01,0.41,0.48,0.45,0.92
					c0.19,1.94,1.44,3.57,3.27,4.26c1.27,0.47,2.64,0.43,3.87-0.14c1.23-0.56,2.17-1.57,2.64-2.84c0.84-2.24-0.02-4.79-2.05-6.06
					c-0.18-0.11-0.31-0.29-0.36-0.5c-0.05-0.21-0.01-0.43,0.1-0.61c0.11-0.18,0.29-0.31,0.5-0.36c0.21-0.05,0.43-0.01,0.61,0.1
					c2.67,1.67,3.81,5.04,2.71,7.99c-0.62,1.67-1.86,3-3.48,3.74c-0.88,0.4-1.81,0.61-2.77,0.61
					C314.85,155.49,314.07,155.35,313.31,155.07z M318.68,143.97C318.68,143.97,318.68,143.97,318.68,143.97
					C318.68,143.97,318.68,143.97,318.68,143.97z"/>
			</g>
		</g>
	</g>
	<g>
		<path class="st3" d="M81.51,236.81c25.03-31.87,50.07-59.76,75.1-95.61c8.68-12.89,18.93-19.66,29.89-22.1l-1.67-75.87
			L86.96,54.22c-18.24,15.54-33.62,36.16-45.94,76.97c-6.3,20.85,0.9,56.52-4.8,78.79c-7.45,29.09-26.28,24.23-31.27,60.8
			c-1.87,13.75,7.52,47.73,8.38,58.76c2.26,28.89-10.3,34.69-10.3,34.69c7.02,3.96,19.9,10.48,33.19,11.53l4.59-23.15
			c3.27,7.67,3.29,23.66,3.29,23.66c9.04,0.99,26.12,3.76,35.32,3.59c5.88-8.28,9.25-17.9,9.25-27.53
			C92.24,312.5,52.91,268.68,81.51,236.81z"/>
		<path class="st3" d="M362.28,329.54c0.86-11.03,12.14-35.97,10.26-49.72c-4.98-36.57-27.65-50.35-35.11-79.44
			c-5.7-22.26,3.65-48.34-2.65-69.19c-12.32-40.8-27.7-61.43-45.94-76.97l-97.87-11.01l-1.66,75.34c29.05-4.5,62.55,20,85.32,42.55
			c17.88,15.93,7.15,47.81,10.73,71.71c0,11.95,17.88,19.92,25.03,31.87c14.3,31.87-14.3,71.71,0,103.58
			c1.05,4.08,2.6,7.79,4.49,11.23c7.62-0.48,23.51-2.99,30.83-4.4c4.18-0.81-2.26-22.48-2.26-22.48
			c3.65-1.05,9.94,20.27,13.41,18.89c4.3-1.7,11.93-5.04,15.9-7.28C372.77,364.23,360.02,358.44,362.28,329.54z"/>
		<path class="st3" d="M310.39,264.69c-7.15-11.95-25.03-19.92-25.03-31.87c-3.58-23.9,7.15-55.77-10.73-71.71
			c-22.77-22.55-56.27-47.05-85.32-42.55l-1.41,63.76l-1.39-63.23c-10.96,2.44-21.21,9.21-29.89,22.1
			c-25.03,35.85-50.07,63.74-75.1,95.61c-28.61,31.87,10.73,75.69,7.15,115.53c0,9.63-3.37,19.25-9.25,27.53
			c48-0.88,95.01-15.24,108.48-19.7c15.2,5.03,73.12,22.71,126.98,19.33c-1.89-3.44-3.44-7.14-4.49-11.23
			C296.08,336.4,324.69,296.56,310.39,264.69z"/>
		<g>
			<path class="st6" d="M36.31,474.89h133.43l-11.99-180.03C28.24,313.86,36.31,471.78,36.31,474.89z"/>
			<path class="st3" d="M184.34,292.98c-9.46,0-18.31,0.66-26.6,1.88l11.99,180.03h43.06l11.88-178.32
				C212.59,294.27,199.21,292.98,184.34,292.98z"/>
			<path class="st6" d="M162,294.29c0,0-11.13,41.76,31.24,42.18c42.37,0.43,31.44-39.9,31.44-39.9S199.76,286.09,162,294.29z"/>
			<path class="st6" d="M224.68,296.58L212.8,474.89h118.47C331.27,474.89,357.9,322.02,224.68,296.58z"/>
		</g>
		<g>
			<path class="st6" d="M162.48,287.06l1.86,22.25c0,0,3.48,15.7,27.44,15.7c26.85,0,30.79-15.7,30.79-15.7l0.36-27.64l0.08-6.36
				C205.22,283.14,176.51,286.06,162.48,287.06z"/>
			<path class="st3" d="M223.3,254.07l-63.02,6.63l1.62,19.29l0.59,7.06c14.03-1,42.74-3.92,60.54-11.75L223.3,254.07z"/>
		</g>
		<path class="st6" d="M276.34,86.21c0,0,14.93,39.09,14.93,96.16c0,44.53-35.55,88.12-89.92,91.65
			c-51.1,3.32-104.19-17.26-120.12-88.93C65.29,113.42,87.86,56.35,152.9,40.42C217.93,24.49,263.06,41.75,276.34,86.21z"/>
		<path class="st6" d="M280.55,172.65c0,0,38.33-13.94,40.32,25.38c1.62,31.91-26.35,38.17-43.47,26.5"/>
		<g>
			<path class="st7" d="M282.04,216.74c0.11,0,0.22-0.02,0.33-0.07c0.4-0.18,0.57-0.65,0.39-1.04c-0.09-0.19-8.49-19.09,4.7-27.89
				c4.63-3.09,9.2-4.17,13.59-3.22c7.57,1.65,12.13,8.88,12.18,8.95c0.23,0.37,0.71,0.48,1.08,0.26c0.37-0.23,0.48-0.71,0.26-1.08
				c-0.2-0.32-4.94-7.86-13.17-9.66c-4.82-1.05-9.81,0.11-14.81,3.45c-14.31,9.54-5.35,29.65-5.26,29.85
				C281.45,216.57,281.74,216.74,282.04,216.74z"/>
		</g>
		<g>
			<path class="st7" d="M301.45,201.33c0.24,0,0.48-0.11,0.63-0.32c0.26-0.35,0.19-0.84-0.16-1.1c-0.13-0.1-13.35-9.75-23.16,0.08
				c-0.31,0.31-0.31,0.81,0,1.11c0.31,0.31,0.81,0.31,1.11,0c8.85-8.87,20.99-0.01,21.11,0.08
				C301.12,201.28,301.29,201.33,301.45,201.33z"/>
		</g>
		<g>
			<path class="st7" d="M194.59,221.24c-12.04,0-13.43-10.01-13.45-10.12c-0.05-0.43,0.25-0.82,0.68-0.88
				c0.41-0.06,0.82,0.25,0.88,0.68c0.05,0.4,1.44,9.84,14.07,8.63c0.43-0.01,0.82,0.28,0.86,0.71c0.04,0.43-0.28,0.82-0.71,0.86
				C196.11,221.21,195.33,221.24,194.59,221.24z"/>
		</g>
		<path class="st6" d="M92.5,172.65c0,0-38.33-13.94-40.32,25.38c-1.67,32.94,28.89,38.58,45.86,25.27"/>
		<path class="st3" d="M122.47,156.18c0,0-7.84-6.97,8.74-15.68c16.57-8.71,22.4-6.79,25.09-2.44c2.45,3.97-1.34,9.93-10.75,14.63
			C134.24,158.34,126.72,160.18,122.47,156.18z"/>
		<path class="st7" d="M154.24,182.76c0,5.36-3.57,9.71-7.96,9.71c-4.4,0-7.96-4.35-7.96-9.71c0-5.36,3.57-9.71,7.96-9.71
			C150.67,173.06,154.24,177.4,154.24,182.76z"/>
		<path class="st3" d="M257.85,156.18c0,0,7.84-6.97-8.74-15.68c-16.57-8.71-22.4-6.79-25.09-2.44c-2.45,3.97,1.34,9.93,10.75,14.63
			C246.07,158.34,253.59,160.18,257.85,156.18z"/>
		<path class="st7" d="M222.58,182.76c0,5.36,3.57,9.71,7.96,9.71c4.4,0,7.96-4.35,7.96-9.71c0-5.36-3.57-9.71-7.96-9.71
			C226.15,173.06,222.58,177.4,222.58,182.76z"/>
		<g>
			<path class="st7" d="M91.01,216.74c-0.11,0-0.22-0.02-0.33-0.07c-0.4-0.18-0.57-0.65-0.39-1.04c0.09-0.19,8.49-19.09-4.7-27.89
				c-4.63-3.09-9.2-4.17-13.59-3.22c-7.57,1.65-12.13,8.88-12.18,8.95c-0.23,0.37-0.71,0.48-1.08,0.26
				c-0.37-0.23-0.48-0.71-0.26-1.08c0.2-0.32,4.94-7.86,13.17-9.66c4.82-1.05,9.81,0.11,14.81,3.45
				c14.31,9.54,5.35,29.65,5.26,29.85C91.6,216.57,91.31,216.74,91.01,216.74z"/>
		</g>
		<g>
			<path class="st7" d="M71.6,201.33c-0.24,0-0.48-0.11-0.63-0.32c-0.26-0.35-0.19-0.84,0.16-1.1c0.13-0.1,13.35-9.75,23.16,0.08
				c0.31,0.31,0.31,0.81,0,1.11c-0.31,0.31-0.81,0.31-1.11,0c-8.85-8.87-20.99-0.01-21.11,0.08
				C71.93,201.28,71.76,201.33,71.6,201.33z"/>
		</g>
		<g>
			<path class="st7" d="M197.26,202.21c-0.3,0-0.58-0.17-0.72-0.46c-0.18-0.4,0-0.86,0.39-1.04c0.06-0.03,6.37-2.95,9.16-8.59
				c2.19-4.43,1.51-11.08-1.43-13.96c-1.77-1.73-4.16-1.87-6.94-0.42c-0.09,0.05-0.23,0.13-0.41,0.23
				c-9.7,5.63-14.07,3.1-16.04-0.01c-3.6-5.72-0.49-50.88-0.12-56.01c0.03-0.43,0.42-0.75,0.84-0.73c0.43,0.03,0.76,0.41,0.73,0.84
				c-0.99,13.8-2.93,50.59-0.12,55.06c2.32,3.68,7,3.51,13.91-0.51c0.21-0.12,0.37-0.22,0.47-0.27c3.39-1.77,6.5-1.53,8.77,0.69
				c3.43,3.36,4.24,10.73,1.74,15.79c-3.05,6.15-9.64,9.2-9.92,9.33C197.48,202.19,197.37,202.21,197.26,202.21z"/>
		</g>
		<path class="st3" d="M171.8,31.32c0,0-147.19-20.7-113.43,147.32c0,0,8.03-9.83,27.61-8.18c19.57,1.65,92.48-60.2,94.74-81.71
			c0,0,60.79,81.5,110.56,81.5c10.48,0,21.18,4.98,23.41,8.39c2.23,3.41,27.85-73.11-12.44-115.69
			C252.73,10.62,201.92,20.22,171.8,31.32z"/>
		<path class="st3" d="M162.68,41.39c-7.42-6.21-12.62-14.99-14.62-24.45c-0.58-2.73,2.33-4.91,4.71-3.44
			c6.3,3.91,11.06,10.34,12.74,17.58c-0.47-7.33-0.93-14.66-1.4-21.99c-0.19-2.99-0.13-6.52,2.31-8.26
			c2.01-1.43,4.94-0.89,6.87,0.65c1.93,1.54,3.04,3.87,3.93,6.17c3.8,9.82,4.52,20.8,2.05,31.03"/>
		<path class="st18" d="M24.14,366.96c-3.88-11.18-7.77-22.36-11.65-33.54c-4.75-13.68-9.54-27.49-11.54-41.92
			c-2.01-14.44-1.07-29.74,5.19-42.87c7.86-16.49,23.39-28.34,29.61-45.56c7.77-21.5-0.87-45.17-0.66-68.07
			c0.31-33.4,17.02-80.67,74.91-95.1c31.03-7.74,42.89,13.63,64.34,38.12"/>
		<path class="st18" d="M217,31.5c31.25-8.93,66.29,0.73,90.18,24.89c23.9,24.15,35.93,62.06,30.98,97.58
			c-1.28,9.15-3.61,18.33-2.62,27.53c3.09,28.91,36.08,43.89,41.57,72.35c2.46,12.79-1.18,25.99-5.41,38.19
			c-4.23,12.2-9.16,24.51-9.36,37.59c-0.2,13.07,5.81,27.36,17.01,31.28"/>
		<path class="st19" d="M164.35,34.74c7.54,37.72,27.11,72.95,55.14,99.3c28.03,26.35,64.4,43.69,102.52,48.88"/>
		<path class="st6" d="M83.7,221.27c3.41-3.41,8.93-3.41,12.34,0c3.41,3.41,3.41,8.93,0,12.34c-3.41,3.41-8.93,3.41-12.34,0
			C80.29,230.2,80.29,224.68,83.7,221.27z"/>
		<path class="st6" d="M279.95,221.27c3.41-3.41,8.93-3.41,12.34,0s3.41,8.93,0,12.34c-3.41,3.41-8.93,3.41-12.34,0
			C276.54,230.2,276.54,224.68,279.95,221.27z"/>
		<g>
			<g>
				<path class="st3" d="M205.54,181.5c-1.04-23.34,17.1-43.17,40.44-44.21c23.34-1.04,43.17,17.1,44.21,40.44
					c1.04,23.34-17.1,43.17-40.44,44.21C226.42,222.98,206.58,204.84,205.54,181.5z M207.79,181.4
					c0.98,22.1,19.76,39.27,41.86,38.29c22.1-0.98,39.27-19.76,38.29-41.86c-0.98-22.1-19.76-39.28-41.86-38.29
					C223.99,140.53,206.81,159.3,207.79,181.4z"/>
			</g>
			<g>
				<path class="st3" d="M89.83,186.66c-1.04-23.34,17.1-43.17,40.44-44.21c23.34-1.04,43.17,17.1,44.21,40.44
					c1.04,23.34-17.1,43.17-40.44,44.21C110.7,228.14,90.87,210,89.83,186.66z M92.08,186.56c0.98,22.1,19.76,39.28,41.86,38.29
					c22.1-0.98,39.28-19.76,38.29-41.86c-0.99-22.1-19.76-39.28-41.86-38.29C108.27,145.68,91.1,164.46,92.08,186.56z"/>
			</g>
			<g>
				<path class="st3" d="M173.15,178.17c0.19-0.01,0.39-0.07,0.56-0.18c15.69-10.15,32.43-1.54,32.6-1.45
					c0.55,0.29,1.23,0.08,1.52-0.47c0.29-0.55,0.08-1.23-0.47-1.52c-0.18-0.09-18.09-9.3-34.87,1.55c-0.52,0.34-0.67,1.03-0.33,1.56
					C172.37,178,172.76,178.18,173.15,178.17z"/>
			</g>
		</g>
		<path class="st6" d="M174.34,474.89L162,294.29l-51.49,68.58c-1.76,2.35-1.53,5.63,0.54,7.71l24.16,24.25
			c1.83,1.84,2.2,4.68,0.89,6.92l-13.61,23.38c-1.16,2-1.19,4.46-0.08,6.48l23.86,43.29H174.34z"/>
		<path class="st6" d="M210.57,474.89l12.34-180.6l51.49,68.58c1.76,2.35,1.53,5.63-0.54,7.71l-24.16,24.25
			c-1.83,1.84-2.2,4.68-0.89,6.92l13.61,23.38c1.16,2,1.19,4.46,0.08,6.48l-23.86,43.29H210.57z"/>
		<line class="st6" x1="82.67" y1="474.89" x2="87.17" y2="403.27"/>
		<line class="st6" x1="291.25" y1="474.89" x2="286.75" y2="403.27"/>
	</g>
	<g class="st0">
		<g class="st2">
			<path class="st5" d="M-107.35,366.8c-3.86-0.74-8.14-1.15-12.89-1.15c-3.02,0-5.85,0.21-8.5,0.6
				c-41.39,6.07-38.81,56.54-38.81,57.53h42.64h13.76h37.86C-73.29,423.79-64.78,374.93-107.35,366.8z"/>
			<path class="st20" d="M-155.87,423.79l5.29-50.12c0,0,3.07-3.43,8.63-5.25l0.27,35.65l44.21,0.08l-0.51-34.89
				c0,0,5.75,1.94,7.62,4.54l3.68,49.99H-155.87z"/>
			<path class="st6" d="M-138.82,368.33c0,0,3.59,19.6,20.52,19.56c19.57-0.04,19.53-18.94,19.53-18.94S-114.7,360.18-138.82,368.33
				z"/>
		</g>
		<g class="st2">
			<path class="st6" d="M-108.88,367.38l0.05-5.35l0.03-2.03c-5.69,2.5-14.86,3.44-19.35,3.76v3.62"/>
			<path class="st5" d="M-108.72,353.22l-20.14,2.12l0.52,6.17l0.19,2.26c4.48-0.32,13.66-1.25,19.35-3.76L-108.72,353.22z"/>
		</g>
		<path class="st21" d="M-105.08,352.8c12.2-5.44,22.16-16.08,25.55-28.84c3.39-12.76-0.33-27.37-10.22-36.27
			c-9.19-8.27-22.55-10.98-34.91-9.42"/>
		<path class="st9" d="M-89.39,400.9"/>
		<path class="st9" d="M-87.95,423.79"/>
		<g class="st2">
			<path class="st22" d="M-142.49,401.4c3.93-0.06,5.94-1.93,7.16-4.38c-0.54-1.43-1.35-2.73-2.5-3.74c-2.3-2.02-6.11-2.46-8.4-0.43
				l-1.79,1.67c-1.36,0.42-2.19,1.77-2.38,3.21C-149.03,399.57-146.61,401.46-142.49,401.4z"/>
			<path class="st5" d="M-142.49,401.4c-4.12,0.06-6.54-1.83-7.92-3.67c-0.06,0.42-0.07,0.86-0.01,1.27
				c0.25,1.83,1.33,3.42,2.41,4.91c1.08,1.49,2.22,3.03,2.6,4.83c0.38,1.8-0.25,3.97-1.91,4.75c3.22,1.2,7.04,0,9.42-2.47
				s3.44-6.02,3.39-9.46c-0.02-1.53-0.28-3.1-0.82-4.54C-136.55,399.47-138.56,401.35-142.49,401.4z"/>
		</g>
		<path class="st8" d="M-153.95,374.11c-3.73,9.24-1.31,15.66,2.76,20.69c2.35,2.91,5.89,5.61,9.34,4.5c2.27-0.73,3.78-2.9,5.04-5
			c1.76-2.94,3.41-6.25,3.07-9.73c-0.49-5-5.1-8.73-9.83-9.67C-148.3,373.96-149.31,372.91-153.95,374.11z"/>
		<path class="st8" d="M-155.2,362.01c-3.73,9.24-1.31,15.66,2.76,20.69c2.35,2.91,5.89,5.61,9.34,4.5c2.27-0.73,3.78-2.9,5.04-5
			c1.76-2.94,3.41-6.25,3.07-9.73c-0.49-5-5.1-8.73-9.83-9.67C-149.55,361.85-150.56,360.81-155.2,362.01z"/>
		<path class="st8" d="M-158.27,348.09c-1.47,7.16-0.94,14.73,1.52,21.51c1.42,3.93,4.17,8.06,8.22,8.14
			c2.66,0.06,5.04-1.69,7.13-3.45c2.93-2.46,5.87-5.36,6.77-9.15c1.3-5.45-2.21-11.06-6.85-13.77c-4.64-2.71-10.16-3.19-15.5-3.61"
			/>
		<path class="st8" d="M-154.57,305.73c-8.51,16.88-9.93,27.1-6.26,42.03c1.65,6.72,5.16,16.19,11.93,17.66
			c4.45,0.96,10.9-3.55,14.91-5.7c5.62-3.02,7.52-1.71,10.12-7.54c3.73-8.37-0.56-18.57-7.57-24.47
			c-7.02-5.9-16.16-8.48-24.99-10.91"/>
		<path class="st8" d="M-165,333.27c7.82,12.49,20.47,22.25,34.94,25.02c14.47,2.77,30.56-2.11,39.88-13.52
			c9.32-11.41,10.58-29.2,1.74-40.99"/>
		<path class="st9" d="M-93.5,299.57c0,0,4.77,12.49,4.77,30.73c0,14.23-11.36,28.16-28.74,29.29c-16.33,1.06-33.3-5.51-38.39-28.42
			c-5.09-22.91,2.12-41.15,22.91-46.24C-112.16,279.85-97.74,285.36-93.5,299.57z"/>
		<path class="st8" d="M-151.11,327.35c0,0,7.32-2.41,12.23-13.01c4.92-10.6,3.66-11.75,3.66-11.75s6.35,1.52,23.01,6.88
			c11.09,3.57,14.46,15.93,24.42,17.81c0,0,8.57,4.57,8.54-12.33c-0.03-15.96-10.77-34.65-28.89-37.74
			c-20.41-3.47-32.72,5.72-35.44,12.07c0,0-28.8,1.06-25.24,40.51C-167.3,346.4-151.11,327.35-151.11,327.35z"/>
		<path class="st21" d="M-140.18,301.43c10.11,1.16,19.88,5.23,27.81,11.61c4.22,3.39,7.97,7.44,12.68,10.11
			c4.71,2.67,10.87,3.71,15.43,0.8"/>
		<path class="st4" d="M-146.88,291.12c-10,1.5-17.99,8.61-21.84,17.96c-3.85,9.36-3.41,20.63,2.65,28.73
			c2.04,2.74,4.65,5.28,5.36,8.62c0.67,3.19-0.53,6.43-1.03,9.65c-1.26,8.1,2.33,16.76,8.95,21.6"/>
		<path class="st9" d="M-92.15,327.19c0,0,12.25-4.45,12.88,8.11c0.52,10.2-8.42,12.2-13.89,8.47"/>
		<g class="st2">
			<path class="st7" d="M-91.67,341.29c0.03,0,0.07-0.01,0.1-0.02c0.13-0.06,0.18-0.21,0.12-0.33c-0.03-0.06-2.71-6.1,1.5-8.91
				c1.48-0.99,2.94-1.33,4.34-1.03c2.42,0.53,3.88,2.84,3.89,2.86c0.07,0.12,0.23,0.15,0.35,0.08c0.12-0.07,0.15-0.23,0.08-0.35
				c-0.06-0.1-1.58-2.51-4.21-3.09c-1.54-0.33-3.13,0.03-4.73,1.1c-4.57,3.05-1.71,9.48-1.68,9.54
				C-91.86,341.23-91.77,341.29-91.67,341.29z"/>
		</g>
		<g class="st2">
			<path class="st7" d="M-85.47,336.36c0.08,0,0.15-0.03,0.2-0.1c0.08-0.11,0.06-0.27-0.05-0.35c-0.04-0.03-4.27-3.12-7.4,0.02
				c-0.1,0.1-0.1,0.26,0,0.36c0.1,0.1,0.26,0.1,0.36,0c2.83-2.83,6.71,0,6.75,0.02C-85.58,336.34-85.52,336.36-85.47,336.36z"/>
		</g>
		<g class="st2">
			<path class="st7" d="M-119.62,342.72c-3.85,0-4.29-3.2-4.3-3.23c-0.02-0.14,0.08-0.26,0.22-0.28c0.13-0.02,0.26,0.08,0.28,0.22
				c0.02,0.13,0.46,3.15,4.5,2.76c0.14,0,0.26,0.09,0.28,0.23c0.01,0.14-0.09,0.26-0.23,0.28
				C-119.14,342.71-119.38,342.72-119.62,342.72z"/>
		</g>
		<path class="st9" d="M-152.25,327.19c0,0-12.25-4.45-12.88,8.11c-0.53,10.53,9.23,12.33,14.66,8.08"/>
		<path class="st8" d="M-142.67,321.93c0,0-2.51-2.23,2.79-5.01c5.3-2.78,7.16-2.17,8.02-0.78c0.78,1.27-0.43,3.17-3.44,4.68
			C-138.91,322.62-141.31,323.21-142.67,321.93z"/>
		<path class="st13" d="M-132.52,330.43c0,1.71-1.14,3.1-2.55,3.1c-1.41,0-2.55-1.39-2.55-3.1c0-1.71,1.14-3.1,2.55-3.1
			C-133.66,327.32-132.52,328.71-132.52,330.43z"/>
		<path class="st8" d="M-99.4,321.93c0,0,2.51-2.23-2.79-5.01c-5.3-2.78-7.16-2.17-8.02-0.78c-0.78,1.27,0.43,3.17,3.44,4.68
			C-103.17,322.62-100.76,323.21-99.4,321.93z"/>
		<path class="st13" d="M-110.68,330.43c0,1.71,1.14,3.1,2.55,3.1c1.41,0,2.54-1.39,2.54-3.1c0-1.71-1.14-3.1-2.54-3.1
			C-109.54,327.32-110.68,328.71-110.68,330.43z"/>
		<g class="st2">
			<path class="st7" d="M-152.72,341.29c-0.03,0-0.07-0.01-0.1-0.02c-0.13-0.06-0.18-0.21-0.12-0.33c0.03-0.06,2.71-6.1-1.5-8.91
				c-1.48-0.99-2.94-1.33-4.34-1.03c-2.42,0.53-3.88,2.84-3.89,2.86c-0.07,0.12-0.23,0.15-0.35,0.08c-0.12-0.07-0.15-0.23-0.08-0.35
				c0.06-0.1,1.58-2.51,4.21-3.09c1.54-0.33,3.13,0.03,4.73,1.1c4.57,3.05,1.71,9.48,1.68,9.54
				C-152.54,341.23-152.63,341.29-152.72,341.29z"/>
		</g>
		<g class="st2">
			<path class="st7" d="M-158.93,336.36c-0.08,0-0.15-0.03-0.2-0.1c-0.08-0.11-0.06-0.27,0.05-0.35c0.04-0.03,4.27-3.12,7.4,0.02
				c0.1,0.1,0.1,0.26,0,0.36c-0.1,0.1-0.26,0.1-0.36,0c-2.83-2.83-6.71,0-6.75,0.02C-158.82,336.34-158.87,336.36-158.93,336.36z"/>
		</g>
		<g class="st2">
			<path class="st7" d="M-118.77,336.64c-0.1,0-0.19-0.05-0.23-0.15c-0.06-0.13,0-0.28,0.12-0.33c0.02-0.01,2.04-0.94,2.93-2.75
				c0.7-1.42,0.48-3.54-0.46-4.46c-0.57-0.55-1.33-0.6-2.22-0.13c-0.03,0.01-0.07,0.04-0.13,0.07c-3.1,1.8-4.5,0.99-5.13,0
				c-1.15-1.83-0.16-16.26-0.04-17.9c0.01-0.14,0.13-0.24,0.27-0.23c0.14,0.01,0.24,0.13,0.23,0.27
				c-0.32,4.41-0.94,16.17-0.04,17.59c0.74,1.18,2.24,1.12,4.45-0.16c0.07-0.04,0.12-0.07,0.15-0.09c1.08-0.56,2.08-0.49,2.8,0.22
				c1.1,1.07,1.36,3.43,0.56,5.05c-0.97,1.97-3.08,2.94-3.17,2.98C-118.7,336.63-118.73,336.64-118.77,336.64z"/>
		</g>
		<g class="st2">
			<path class="st23" d="M-104.59,340.73c-2.96-0.02-7.08-1.93-9.25-5.54c-1.06-1.75-1.54-3.75-1.4-5.79c-0.5-0.23-2.33-1-4.63-1
				c-1.86,0-3.58,0.5-5.1,1.47c0.04,1.89-0.44,3.68-1.42,5.32c-2.17,3.6-6.3,5.51-9.25,5.54h-0.11c-4.48,0-9-2.17-11.8-5.66
				c-2.23-2.79-4.51-7.77-2.66-15.73c0.14-0.62,0.57-0.78,2.68-1.05c0.55-0.07,2.54-0.29,5.07-0.29c5.78,0,13.24,1.11,15.98,6.4
				c0.63,1.21,1.06,2.42,1.3,3.61c1.62-0.87,3.4-1.31,5.31-1.31c2.18,0,3.98,0.58,4.9,0.95c0.25-1.08,0.66-2.17,1.22-3.25
				c2.75-5.29,10.19-6.4,15.96-6.4c2.58,0,4.58,0.23,5.14,0.3c2.08,0.26,2.5,0.43,2.64,1.05c1.84,7.96-0.43,12.95-2.66,15.73
				c-2.8,3.49-7.32,5.66-11.8,5.66H-104.59z M-148.62,320.23c-1.48,6.99,0.5,11.33,2.43,13.75c2.96,3.69,7.31,5,10.41,5l0.12,0
				c2.47-0.02,5.92-1.64,7.76-4.69c1.12-1.86,2.01-4.95-0.14-9.08c-2.01-3.88-7.38-5.06-11.52-5.37c-0.89-0.07-1.82-0.1-2.77-0.1
				C-145.28,319.73-147.7,320.05-148.62,320.23z M-97.91,319.73c-0.96,0-1.89,0.03-2.77,0.1c-4.15,0.31-9.51,1.5-11.52,5.37
				c-2.15,4.14-1.26,7.22-0.14,9.08c1.84,3.05,5.3,4.67,7.76,4.69l0.11,0c3.1,0,7.47-1.31,10.42-5c1.94-2.42,3.92-6.76,2.43-13.75
				C-92.54,320.05-94.96,319.73-97.91,319.73z"/>
			<path d="M-97.8,318.5c2.54,0,4.52,0.23,5.07,0.3c2.12,0.27,2.16,0.43,2.21,0.66c1.8,7.76-0.4,12.61-2.57,15.31
				c-2.71,3.38-7.07,5.47-11.41,5.47c-0.03,0-0.07,0-0.1,0c-2.81-0.02-6.75-1.85-8.82-5.29c-0.84-1.39-1.56-3.38-1.3-5.88
				c0,0,0,0,0,0c-0.06,0-0.11-0.01-0.17-0.04c-0.03-0.02-2.17-1.12-5-1.12c-1.66,0-3.56,0.38-5.42,1.58
				c-0.06,0.04-0.12,0.05-0.18,0.06c0,0,0,0,0,0c-0.01,0-0.01,0-0.02,0c0.13,2.27-0.55,4.09-1.34,5.39
				c-2.08,3.45-6.01,5.27-8.82,5.29c-0.03,0-0.07,0-0.1,0c-4.34,0-8.7-2.09-11.41-5.47c-2.16-2.7-4.36-7.54-2.57-15.31v0
				c0.05-0.24,0.09-0.39,2.26-0.67c0.55-0.07,2.49-0.29,5.01-0.29c5.21,0,12.85,0.94,15.54,6.13c0.79,1.52,1.2,2.91,1.37,4.18
				c1.95-1.22,3.94-1.61,5.68-1.61c2.74,0,4.88,0.97,5.27,1.15c0.2-1.14,0.6-2.39,1.3-3.72C-110.62,319.45-103.01,318.5-97.8,318.5
				 M-104.47,339.48c3.22,0,7.75-1.37,10.81-5.19c2.04-2.55,4.11-7.12,2.46-14.48c-0.67-0.18-3.39-0.58-6.71-0.58
				c-0.9,0-1.85,0.03-2.81,0.1c-4.27,0.32-9.81,1.56-11.93,5.64c-2.25,4.34-1.31,7.6-0.12,9.57c1.93,3.21,5.58,4.91,8.19,4.93
				C-104.55,339.48-104.51,339.48-104.47,339.48 M-135.78,339.48c0.04,0,0.08,0,0.12,0c2.6-0.02,6.25-1.72,8.19-4.93
				c1.19-1.97,2.13-5.23-0.12-9.57c-2.12-4.08-7.66-5.32-11.93-5.64c-0.96-0.07-1.9-0.1-2.8-0.1c-3.32,0-6.04,0.4-6.71,0.58
				c-1.65,7.36,0.42,11.93,2.46,14.48C-143.52,338.11-139.05,339.48-135.78,339.48 M-97.8,317.5c-5.9,0-13.54,1.16-16.4,6.67
				c-0.49,0.94-0.86,1.88-1.12,2.82c-1.04-0.36-2.66-0.79-4.55-0.79c-1.76,0-3.43,0.36-4.96,1.08c-0.26-1.03-0.66-2.07-1.2-3.11
				c-2.86-5.51-10.51-6.67-16.42-6.67c-2.56,0-4.57,0.23-5.13,0.3c-1.99,0.25-2.87,0.4-3.11,1.43c-1.89,8.15,0.46,13.29,2.76,16.16
				c2.89,3.6,7.56,5.84,12.19,5.84l0.06,0h0l0.05,0c3.09-0.02,7.41-2.02,9.67-5.78c0.97-1.61,1.48-3.43,1.5-5.3
				c1.39-0.83,2.93-1.25,4.6-1.25c1.86,0,3.41,0.53,4.12,0.82c-0.07,2.02,0.44,3.99,1.49,5.73c2.27,3.76,6.58,5.75,9.67,5.78l0.11,0
				c4.63,0,9.3-2.24,12.19-5.84c2.3-2.87,4.65-8.01,2.76-16.16c-0.23-1.02-1.11-1.18-3.06-1.43
				C-93.16,317.73-95.19,317.5-97.8,317.5L-97.8,317.5z M-104.47,338.48l-0.1,0c-2.27-0.02-5.61-1.58-7.34-4.45
				c-1.06-1.75-1.89-4.67,0.15-8.6c1.9-3.67,7.1-4.8,11.12-5.11c0.88-0.07,1.8-0.1,2.74-0.1c2.62,0,4.81,0.26,5.87,0.43
				c1.31,6.61-0.56,10.71-2.4,13C-97.29,337.22-101.49,338.48-104.47,338.48L-104.47,338.48z M-148.2,320.66
				c1.06-0.18,3.25-0.43,5.87-0.43c0.94,0,1.86,0.03,2.73,0.1c4.02,0.3,9.21,1.43,11.12,5.11c2.04,3.93,1.21,6.85,0.15,8.6
				c-1.73,2.87-5.07,4.43-7.34,4.45l-0.12,0c-2.98,0-7.17-1.26-10.02-4.81C-147.64,331.37-149.51,327.27-148.2,320.66L-148.2,320.66
				z"/>
		</g>
		<path class="st16" d="M-155.41,378.93c0,0-2.01,8.77,5.36,17.54"/>
		<path class="st16" d="M-136.82,394.3c0,0,3.95-4.96,2.94-10.55c-1.01-5.59-1.92-6.07-1.92-6.07s0.64-0.81,1.28-4.1"/>
	</g>
	<g class="st0">
		<g class="st2">
			<path class="st6" d="M330.56,408.53c-0.17-2.29-0.46-4.72-0.93-7.22c-0.54-2.88-1.31-5.86-2.4-8.8
				c-1.15-3.11-2.64-6.18-4.59-9.07c-1.4-2.09-3.02-4.08-4.92-5.93c-3.2-3.12-7.16-5.82-12.05-7.86c-6.01-2.5-13.41-3.99-22.54-3.99
				c-9.88,0-17.7,2.22-23.9,5.77c-2.75,1.58-5.16,3.44-7.31,5.47c-2.64,2.5-4.84,5.3-6.69,8.24c-1.43,2.28-2.64,4.64-3.68,7.03
				c-1.26,2.92-2.25,5.88-3.03,8.76c-0.78,2.9-1.34,5.7-1.74,8.31c-0.52,3.34-0.77,6.32-0.89,8.72c-0.18,3.43-0.08,5.64-0.08,5.84
				h34.48h26.03h33.75c0,0,0.46-2.72,0.62-6.97C330.79,414.46,330.79,411.63,330.56,408.53z"/>
			<g>
				<line class="st5" x1="253.05" y1="423.79" x2="254.77" y2="399.06"/>
				<line class="st5" x1="315.64" y1="423.79" x2="315.64" y2="399.06"/>
			</g>
		</g>
		<path class="st9" d="M271.56,366.56c0,0,0.21,12.83,13.75,12.97c13.54,0.14,14.82-11.95,14.82-11.95S284.76,364.1,271.56,366.56z"
			/>
		<g class="st2">
			<path class="st6" d="M276.18,363.76l0.6,7.11c0,0,1.11,5.02,8.77,5.02c8.58,0,9.84-5.02,9.84-5.02l0.11-8.83l0.03-2.03
				C289.83,362.5,280.66,363.44,276.18,363.76z"/>
			<path class="st5" d="M295.61,353.22l-20.14,2.12l0.52,6.17l0.19,2.26c4.48-0.32,13.66-1.25,19.35-3.76L295.61,353.22z"/>
		</g>
		<g class="st2">
			<g>
				<g>
					<g>
						<path class="st6" d="M315.55,323.06c0,0,12.25-4.45,12.88,8.11c0.64,12.57-15.8,14.17-16.7,5.25"/>
						<g>
							<path class="st3" d="M316.03,337.16c0.04,0,0.07-0.01,0.1-0.02c0.13-0.06,0.18-0.21,0.12-0.33c-0.03-0.06-2.71-6.1,1.5-8.91
								c1.48-0.99,2.94-1.33,4.34-1.03c2.42,0.53,3.88,2.84,3.89,2.86c0.07,0.12,0.23,0.15,0.35,0.08c0.12-0.07,0.15-0.23,0.08-0.35
								c-0.06-0.1-1.58-2.51-4.21-3.09c-1.54-0.33-3.13,0.03-4.73,1.1c-4.57,3.05-1.71,9.48-1.68,9.54
								C315.84,337.1,315.93,337.16,316.03,337.16z"/>
						</g>
						<g>
							<path class="st3" d="M322.23,332.23c0.08,0,0.15-0.03,0.2-0.1c0.08-0.11,0.06-0.27-0.05-0.35c-0.04-0.03-4.27-3.12-7.4,0.02
								c-0.1,0.1-0.1,0.26,0,0.36c0.1,0.1,0.26,0.1,0.36,0c2.83-2.83,6.71,0,6.75,0.02C322.12,332.21,322.18,332.23,322.23,332.23z"
								/>
						</g>
						<path class="st6" d="M255.45,323.06c0,0-12.25-4.45-12.88,8.11c-0.64,12.57,15.8,14.17,16.7,5.25"/>
						<g>
							<path class="st3" d="M254.98,337.16c-0.03,0-0.07-0.01-0.1-0.02c-0.13-0.06-0.18-0.21-0.13-0.33c0.03-0.06,2.71-6.1-1.5-8.91
								c-1.48-0.99-2.94-1.33-4.34-1.03c-2.42,0.53-3.88,2.84-3.89,2.86c-0.07,0.12-0.23,0.15-0.35,0.08
								c-0.12-0.07-0.15-0.23-0.08-0.35c0.06-0.1,1.58-2.51,4.21-3.09c1.54-0.33,3.13,0.03,4.73,1.1c4.57,3.05,1.71,9.48,1.68,9.54
								C255.16,337.1,255.07,337.16,254.98,337.16z"/>
						</g>
						<g>
							<path class="st3" d="M248.77,332.23c-0.08,0-0.15-0.03-0.2-0.1c-0.08-0.11-0.06-0.27,0.05-0.35c0.04-0.03,4.27-3.12,7.4,0.02
								c0.1,0.1,0.1,0.26,0,0.36c-0.1,0.1-0.26,0.1-0.36,0c-2.83-2.83-6.71,0-6.75,0.02C248.88,332.21,248.83,332.23,248.77,332.23z
								"/>
						</g>
						<path class="st6" d="M316.73,300.21c2.35,6.68,3.37,10.62,2.25,25.96c-1.03,14.19-11.36,28.16-28.74,29.29
							c-16.33,1.06-34.44-5.29-38.39-28.42c-3.33-19.49,2.12-38.86,22.91-43.95C295.54,278,312.27,287.53,316.73,300.21z"/>
						<path class="st3" d="M251.57,326.18c0,0,3.57,5,14.67,8.25c11.1,3.25,14.51-0.72,20.45-0.72c5.95,0,5.01,1.49,14.35,1.89
							c9.34,0.4,15.66-6.95,18.3-11.15c0,0,2.34,34.04-34.15,34.04C252.31,358.49,251.57,326.18,251.57,326.18z"/>
						<path class="st6" d="M284.98,336.72c0,0-6.92,0.36-7.59,6.84c-0.62,5.97,6.06,1.03,8.34,0.94c2.29-0.09,7.96,5.52,7.94-0.66
							C293.65,338.15,287.7,336.37,284.98,336.72z"/>
						<g>
							<path class="st3" d="M288.08,342.88c-3.85,0-4.29-3.2-4.3-3.23c-0.02-0.14,0.08-0.26,0.22-0.28
								c0.13-0.02,0.26,0.08,0.28,0.22c0.02,0.13,0.46,3.15,4.5,2.76c0.14,0,0.26,0.09,0.28,0.23c0.01,0.14-0.09,0.26-0.23,0.28
								C288.56,342.87,288.32,342.88,288.08,342.88z"/>
						</g>
						<path class="st3" d="M265.03,317.8c0,0-2.51-2.23,2.79-5.01c5.3-2.78,7.16-2.17,8.02-0.78c0.78,1.27-0.43,3.17-3.44,4.68
							C268.79,318.49,266.39,319.08,265.03,317.8z"/>
						<path class="st7" d="M275.18,326.3c0,1.71-1.14,3.1-2.55,3.1c-1.41,0-2.54-1.39-2.54-3.1c0-1.71,1.14-3.1,2.54-3.1
							C274.04,323.19,275.18,324.58,275.18,326.3z"/>
						<path class="st3" d="M308.3,317.8c0,0,2.51-2.23-2.79-5.01c-5.3-2.78-7.16-2.17-8.02-0.78c-0.78,1.27,0.43,3.17,3.44,4.68
							C304.53,318.49,306.94,319.08,308.3,317.8z"/>
						<path class="st7" d="M297.02,326.3c0,1.71,1.14,3.1,2.55,3.1s2.55-1.39,2.55-3.1c0-1.71-1.14-3.1-2.55-3.1
							S297.02,324.58,297.02,326.3z"/>
						<g>
							<path class="st3" d="M288.93,332.51c-0.1,0-0.19-0.05-0.23-0.15c-0.06-0.13,0-0.28,0.12-0.33c0.02-0.01,2.04-0.94,2.93-2.75
								c0.7-1.42,0.48-3.54-0.46-4.46c-0.57-0.55-1.33-0.6-2.22-0.13c-0.03,0.01-0.07,0.04-0.13,0.07c-3.1,1.8-4.5,0.99-5.13,0
								c-1.15-1.83-0.16-16.26-0.04-17.9c0.01-0.14,0.13-0.24,0.27-0.23c0.14,0.01,0.24,0.13,0.23,0.27
								c-0.32,4.41-0.94,16.17-0.04,17.59c0.74,1.18,2.24,1.12,4.45-0.16c0.07-0.04,0.12-0.07,0.15-0.09
								c1.08-0.56,2.08-0.49,2.8,0.22c1.1,1.07,1.36,3.43,0.56,5.05c-0.97,1.97-3.08,2.94-3.17,2.98
								C289,332.51,288.97,332.51,288.93,332.51z"/>
						</g>
					</g>
				</g>
			</g>
			<g>
				<g>
					<path class="st24" d="M250.5,342.16C250.5,342.16,250.5,342.16,250.5,342.16C250.5,342.16,250.5,342.16,250.5,342.16z"/>
				</g>
			</g>
			<g>
				<g>
					<path class="st24" d="M321.64,342.16C321.64,342.16,321.64,342.16,321.64,342.16C321.64,342.16,321.64,342.16,321.64,342.16z"
						/>
				</g>
			</g>
		</g>
		<path class="st16" d="M274.27,357.24c0,0,7.89,3.08,22.75,0"/>
	</g>
	<g class="st0">
		<path class="st9" d="M106.34,204.93c-1.97,10.41-1.61,18.96-1.61,19.36h19.03v-13.02C117.95,209.33,112.15,207.08,106.34,204.93z"
			/>
		<path class="st9" d="M177.1,211.37v12.92h16.79c0,0,1.28-8.42,0.11-18.85C188.4,207.64,182.71,209.55,177.1,211.37z"/>
		<g class="st2">
			<g>
				<g>
					<path class="st25" d="M101.62,224.59h42.64l-3.83-57.53C99.04,173.13,101.62,223.59,101.62,224.59z"/>
					<path class="st6" d="M148.93,166.45c-3.02,0-5.47,1.61-8.12,2l2.23,56.13h14.99l3.56-55.34
						C157.95,166.86,153.68,166.45,148.93,166.45z"/>
					<path class="st6" d="M140.81,169.47c0,0-2.58,10.75,10.96,10.88c13.54,0.14,10.05-12.75,10.05-12.75
						S152.87,166.85,140.81,169.47z"/>
					<path class="st25" d="M161.82,167.6l-3.8,56.99h37.86C195.88,224.59,204.39,175.73,161.82,167.6z"/>
				</g>
				<path class="st26" d="M145.73,224.59l-3.94-57.72l-16.46,21.92c-0.56,0.75-0.49,1.8,0.17,2.46l7.72,7.75
					c0.59,0.59,0.7,1.49,0.29,2.21l-4.35,7.47c-0.37,0.64-0.38,1.43-0.02,2.07l7.62,13.83"/>
				<path class="st26" d="M157.31,224.59l3.94-57.72l16.46,21.92c0.56,0.75,0.49,1.8-0.17,2.46l-7.72,7.75
					c-0.58,0.59-0.7,1.49-0.28,2.21l4.35,7.47c0.37,0.64,0.38,1.43,0.02,2.07l-7.62,13.83"/>
				<line class="st26" x1="116.43" y1="224.59" x2="117.87" y2="201.7"/>
				<line class="st26" x1="183.09" y1="224.59" x2="181.65" y2="201.7"/>
			</g>
		</g>
		<g class="st2">
			<path class="st6" d="M142.29,167.27l0.6,4.11c0,0,1.11,5.02,8.77,5.02c8.58,0,9.84-5.02,9.84-5.02l0.11-5.83l0.03-2.03
				C155.95,166.02,146.78,166.95,142.29,167.27z"/>
			<path class="st5" d="M161.73,153.73l-20.14,2.12l0.52,9.17l0.19,2.26c4.48-0.32,13.66-1.25,19.35-3.76L161.73,153.73z"/>
		</g>
		<g class="st2">
			<path class="st18" d="M189.41,132.52c4-3.01,5.12-8.74,4.02-13.62c-1.09-4.89-3.99-9.14-6.82-13.27
				c2.41,0.19,4.55-1.97,5.01-4.35c0.46-2.38-0.39-4.82-1.6-6.92c-2.92-5.06-8.06-8.79-13.78-10.01"/>
			<path class="st18" d="M110.7,129.15c-3.69-1.25-6.58-4.61-7.27-8.45c-0.69-3.84,0.86-7.99,3.89-10.44
				c-3.46-4.93-3.32-12.11,0.33-16.91c3.65-4.8,10.54-6.84,16.21-4.8"/>
			<g>
				<g>
					<g>
						<path class="st27" d="M141.57,155.02l0.52,6.17c6.54,1.69,13.28,1.89,19.51,0.54l0.11-8.82L141.57,155.02z"/>
						<path class="st6" d="M181.18,102.88c2.35,6.68,3.37,10.62,2.25,25.96c-1.03,14.19-11.36,28.16-28.74,29.29
							c-16.33,1.06-34.44-5.29-38.39-28.42c-3.33-19.49,2.12-38.86,22.91-43.95C159.99,80.68,176.72,90.2,181.18,102.88z"/>
						<path class="st3" d="M175.31,81.51c4.71,2.5,9.6,5.16,12.65,9.54c3.05,4.38,3.59,11.01-0.28,14.68c1.08,3.3,2.17,6.6,3.25,9.9
							c0.8,2.45,1.61,4.94,1.63,7.52c0.01,2.57-0.91,5.29-2.98,6.82c-2.65,1.96-6.62,1.43-9.15-0.69c-2.53-2.11-3.76-5.47-4.01-8.75
							c-0.24-3.29,0.39-6.57,1.02-9.81c-3.65-4.52-6.82-9.43-9.43-14.62c-1.33-2.64-2.54-5.53-2.16-8.46
							c0.38-2.93,2.93-5.77,5.86-5.43"/>
						<path class="st3" d="M117.1,127.29c0,0,6.21-1.44,6.96-12.27c0,0,5.25-2.17,6.97-12.99c0,0,27.7,10.59,35.52,5.29
							c0,0,3.21-2.41,1.31-6.5c0,0,4.41,3.07,12.15,0.67c7.74-2.41,3.51-13.66-1.54-15.1c0,0,2.76-14.71-12.99-12.55
							c-15.75,2.17-18.35-0.43-27.5,0.06c-9.14,0.48-14.68,6-17.09,10.81c0,0-21.58,11.79-13.55,24.82c0,0-6.9,13.12,2.52,17.76
							C119.28,131.94,117.1,127.29,117.1,127.29z"/>
						<path class="st3" d="M119.59,89.44c-2.11-1.76-3.96-3.83-5.46-6.13c-0.34-0.52-0.59-1.36-0.04-1.65
							c0.42-0.21,0.9,0.14,1.23,0.47c1.21,1.18,2.42,2.36,3.63,3.54c-1.34-2.09-2.27-4.43-2.73-6.87c-0.17-0.9-0.17-2.03,0.62-2.48
							c0.6-0.34,1.4-0.08,1.87,0.42c0.48,0.5,0.71,1.17,0.93,1.82c1.07,3.16,2.14,6.32,3.21,9.48"/>
						<path class="st3" d="M119.16,125.82c0,0-4.21,35.85,31.02,37.6c32.95,1.63,33.43-38.44,33.43-38.44s-5.46,1.13-14.65,10.94
							c-4.95,5.28-10.62,0-17.04,0.34c-6.42,0.34-9.23,1.53-16.34,1.7C128.47,138.13,129.27,125.65,119.16,125.82z"/>
						<path class="st6" d="M176.19,139.1c-0.35-3.46,3.82-13.36,3.82-13.36s12.25-4.45,12.88,8.11
							C193.52,146.42,177.09,148.02,176.19,139.1z"/>
						<g>
							<path class="st3" d="M180.48,139.83c0.04,0,0.07-0.01,0.1-0.02c0.13-0.06,0.18-0.21,0.12-0.33c-0.03-0.06-2.71-6.1,1.5-8.91
								c1.48-0.99,2.94-1.33,4.34-1.03c2.42,0.53,3.88,2.84,3.89,2.86c0.07,0.12,0.23,0.15,0.35,0.08c0.12-0.07,0.16-0.23,0.08-0.35
								c-0.06-0.1-1.58-2.51-4.21-3.09c-1.54-0.33-3.13,0.03-4.73,1.1c-4.57,3.05-1.71,9.48-1.68,9.54
								C180.29,139.77,180.39,139.83,180.48,139.83z"/>
						</g>
						<g>
							<path class="st3" d="M186.68,134.9c0.08,0,0.15-0.03,0.2-0.1c0.08-0.11,0.06-0.27-0.05-0.35c-0.04-0.03-4.27-3.12-7.4,0.02
								c-0.1,0.1-0.1,0.26,0,0.36c0.1,0.1,0.26,0.1,0.36,0c2.83-2.83,6.71,0,6.75,0.02C186.58,134.89,186.63,134.9,186.68,134.9z"/>
						</g>
						<g>
							<path class="st23" d="M152.53,143.55c-3.85,0-4.29-3.2-4.3-3.23c-0.02-0.14,0.08-0.26,0.22-0.28
								c0.13-0.02,0.26,0.08,0.28,0.22c0.02,0.13,0.46,3.15,4.5,2.76c0.14,0,0.26,0.09,0.28,0.23c0.01,0.14-0.09,0.26-0.23,0.28
								C153.02,143.54,152.77,143.55,152.53,143.55z"/>
						</g>
						<path class="st6" d="M123.73,139.1c0.35-3.46-3.82-13.36-3.82-13.36s-12.25-4.45-12.88,8.11
							C106.39,146.42,122.83,148.02,123.73,139.1z"/>
						<path class="st3" d="M129.48,120.47c0,0-2.51-2.23,2.79-5.01c5.3-2.78,7.16-2.17,8.02-0.78c0.78,1.27-0.43,3.17-3.44,4.68
							C133.25,121.16,130.84,121.75,129.48,120.47z"/>
						<path class="st7" d="M139.64,128.97c0,1.71-1.14,3.1-2.55,3.1c-1.41,0-2.54-1.39-2.54-3.1c0-1.71,1.14-3.1,2.54-3.1
							C138.5,125.87,139.64,127.26,139.64,128.97z"/>
						<path class="st3" d="M172.75,120.47c0,0,2.51-2.23-2.79-5.01c-5.3-2.78-7.16-2.17-8.02-0.78c-0.78,1.27,0.43,3.17,3.44,4.68
							C168.99,121.16,171.39,121.75,172.75,120.47z"/>
						<path class="st7" d="M161.48,128.97c0,1.71,1.14,3.1,2.55,3.1c1.41,0,2.55-1.39,2.55-3.1c0-1.71-1.14-3.1-2.55-3.1
							C162.62,125.87,161.48,127.26,161.48,128.97z"/>
						<g>
							<path class="st3" d="M119.43,139.83c-0.03,0-0.07-0.01-0.1-0.02c-0.13-0.06-0.18-0.21-0.13-0.33c0.03-0.06,2.71-6.1-1.5-8.91
								c-1.48-0.99-2.94-1.33-4.34-1.03c-2.42,0.53-3.88,2.84-3.89,2.86c-0.07,0.12-0.23,0.15-0.35,0.08
								c-0.12-0.07-0.15-0.23-0.08-0.35c0.06-0.1,1.58-2.51,4.21-3.09c1.54-0.33,3.13,0.03,4.73,1.1c4.57,3.05,1.71,9.48,1.68,9.54
								C119.62,139.77,119.53,139.83,119.43,139.83z"/>
						</g>
						<g>
							<path class="st3" d="M113.23,134.9c-0.08,0-0.15-0.03-0.2-0.1c-0.08-0.11-0.06-0.27,0.05-0.35c0.04-0.03,4.27-3.12,7.4,0.02
								c0.1,0.1,0.1,0.26,0,0.36c-0.1,0.1-0.26,0.1-0.36,0c-2.83-2.83-6.71,0-6.75,0.02C113.33,134.89,113.28,134.9,113.23,134.9z"
								/>
						</g>
						<g>
							<path class="st3" d="M153.39,135.19c-0.1,0-0.19-0.05-0.23-0.15c-0.06-0.13,0-0.28,0.12-0.33c0.02-0.01,2.04-0.94,2.93-2.75
								c0.7-1.42,0.48-3.54-0.46-4.46c-0.57-0.55-1.33-0.6-2.22-0.13c-0.03,0.01-0.07,0.04-0.13,0.07c-3.1,1.8-4.5,0.99-5.13,0
								c-1.15-1.83-0.16-16.26-0.04-17.9c0.01-0.14,0.13-0.24,0.27-0.23c0.14,0.01,0.24,0.13,0.23,0.27
								c-0.32,4.41-0.94,16.17-0.04,17.59c0.74,1.18,2.24,1.12,4.45-0.16c0.07-0.04,0.12-0.07,0.15-0.09
								c1.08-0.56,2.08-0.49,2.8,0.22c1.1,1.07,1.36,3.43,0.56,5.05c-0.97,1.97-3.08,2.94-3.17,2.98
								C153.46,135.18,153.42,135.19,153.39,135.19z"/>
						</g>
					</g>
				</g>
			</g>
			<g>
				<g>
					<path class="st24" d="M114.95,142.55C114.95,142.55,114.95,142.55,114.95,142.55C114.95,142.55,114.95,142.55,114.95,142.55z"
						/>
				</g>
			</g>
			<path class="st28" d="M140.81,162.49l0.42-0.18c0,0,10.85,2.78,21.02-0.31l0.52,0.29"/>
			<g>
				<path class="st23" d="M160.75,137.15c-2.33,0-4.23-1.9-4.23-4.23v-6.57c-0.28-0.14-2.29-1.1-4.9-1.1
					c-1.83,0-3.52,0.47-5.04,1.39v6.28c0,2.33-1.9,4.23-4.23,4.23h-18.38c-2.33,0-4.23-1.9-4.23-4.23v-14.96
					c0-2.33,1.9-4.23,4.23-4.23h18.38c2.33,0,4.23,1.9,4.23,4.23v7.29c1.55-0.8,3.24-1.21,5.05-1.21c2.21,0,4.04,0.62,4.89,0.97
					v-7.05c0-2.33,1.9-4.23,4.23-4.23h18.38c2.33,0,4.23,1.9,4.23,4.23v14.96c0,2.33-1.9,4.23-4.23,4.23H160.75z M160.75,114.96
					c-1.66,0-3,1.35-3,3v14.96c0,1.66,1.35,3,3,3h18.38c1.66,0,3-1.35,3-3v-14.96c0-1.66-1.35-3-3-3H160.75z M123.96,114.96
					c-1.66,0-3,1.35-3,3v14.96c0,1.66,1.35,3,3,3h18.38c1.66,0,3-1.35,3-3v-14.96c0-1.66-1.35-3-3-3H123.96z"/>
				<path d="M179.13,113.98c2.2,0,3.98,1.79,3.98,3.98v14.96c0,2.2-1.79,3.98-3.98,3.98h-18.38c-2.2,0-3.98-1.79-3.98-3.98v-6.75
					c-0.03-0.01-0.07-0.01-0.1-0.03c-0.03-0.02-2.19-1.14-5.05-1.14c-1.62,0-3.48,0.36-5.29,1.5v6.42c0,2.2-1.79,3.98-3.98,3.98
					h-18.38c-2.2,0-3.98-1.79-3.98-3.98v-14.96c0-2.2,1.79-3.98,3.98-3.98h18.38c2.2,0,3.98,1.79,3.98,3.98v7.71
					c1.83-1.04,3.67-1.38,5.3-1.38c2.49,0,4.48,0.8,5.14,1.1v-7.43c0-2.2,1.79-3.98,3.98-3.98H179.13 M160.75,136.18h18.38
					c1.79,0,3.25-1.46,3.25-3.25v-14.96c0-1.79-1.46-3.25-3.25-3.25h-18.38c-1.79,0-3.25,1.46-3.25,3.25v14.96
					C157.49,134.72,158.95,136.18,160.75,136.18 M123.96,136.18h18.38c1.79,0,3.25-1.46,3.25-3.25v-14.96
					c0-1.79-1.46-3.25-3.25-3.25h-18.38c-1.79,0-3.25,1.46-3.25,3.25v14.96C120.7,134.72,122.16,136.18,123.96,136.18
					 M179.13,113.48h-18.38c-2.47,0-4.48,2.01-4.48,4.48v6.68c-1-0.38-2.66-0.85-4.64-0.85c-1.7,0-3.31,0.36-4.8,1.06v-6.89
					c0-2.47-2.01-4.48-4.48-4.48h-18.38c-2.47,0-4.48,2.01-4.48,4.48v14.96c0,2.47,2.01,4.48,4.48,4.48h18.38
					c2.47,0,4.48-2.01,4.48-4.48v-6.14c1.45-0.85,3.06-1.28,4.79-1.28c2.28,0,4.1,0.75,4.65,1v6.42c0,2.47,2.01,4.48,4.48,4.48
					h18.38c2.47,0,4.48-2.01,4.48-4.48v-14.96C183.61,115.49,181.6,113.48,179.13,113.48L179.13,113.48z M160.75,135.68
					c-1.52,0-2.75-1.24-2.75-2.75v-14.96c0-1.52,1.24-2.75,2.75-2.75h18.38c1.52,0,2.75,1.24,2.75,2.75v14.96
					c0,1.52-1.24,2.75-2.75,2.75H160.75L160.75,135.68z M123.96,135.68c-1.52,0-2.75-1.24-2.75-2.75v-14.96
					c0-1.52,1.24-2.75,2.75-2.75h18.38c1.52,0,2.75,1.24,2.75,2.75v14.96c0,1.52-1.24,2.75-2.75,2.75H123.96L123.96,135.68z"/>
			</g>
		</g>
		<line class="st29" x1="101.62" y1="224.59" x2="195.88" y2="224.59"/>
	</g>
</g>
</svg>
